<?xml version="1.0" encoding="UTF-8" standalone="no"?>
<!DOCTYPE svg PUBLIC "-//W3C//DTD SVG 1.1//EN"
 "http://www.w3.org/Graphics/SVG/1.1/DTD/svg11.dtd">
<!-- Generated by graphviz version 2.47.0 (20210316.0004)
 -->
<!-- Title: dependencies Pages: 1 -->
<svg width="704pt" height="211pt"
 viewBox="0.00 0.00 704.00 211.00" xmlns="http://www.w3.org/2000/svg" xmlns:xlink="http://www.w3.org/1999/xlink">
<g id="graph0" class="graph" transform="scale(1 1) rotate(0) translate(4 207)">
<title>dependencies</title>
<polygon fill="white" stroke="transparent" points="-4,4 -4,-207 700,-207 700,4 -4,4"/>
<text text-anchor="start" x="327.01" y="-42.4" font-family="Times-12" font-weight="bold" font-size="14.00">Legend</text>
<polygon fill="#ffffb3" stroke="transparent" points="114,-10 114,-30 134,-30 134,-10 114,-10"/>
<text text-anchor="start" x="137.63" y="-15.4" font-family="Times-12" font-size="14.00"> &#160;Declarations</text>
<polygon fill="#8dd3c7" stroke="transparent" points="227,-10 227,-30 247,-30 247,-10 227,-10"/>
<text text-anchor="start" x="250.73" y="-15.4" font-family="Times-12" font-size="14.00"> &#160;Module</text>
<polygon fill="#80b1d3" stroke="transparent" points="313,-10 313,-30 333,-30 333,-10 313,-10"/>
<text text-anchor="start" x="336.78" y="-15.4" font-family="Times-12" font-size="14.00"> &#160;Bootstrap</text>
<polygon fill="#fdb462" stroke="transparent" points="410,-10 410,-30 430,-30 430,-10 410,-10"/>
<text text-anchor="start" x="433.67" y="-15.4" font-family="Times-12" font-size="14.00"> &#160;Providers</text>
<polygon fill="#fb8072" stroke="transparent" points="506,-10 506,-30 526,-30 526,-10 506,-10"/>
<text text-anchor="start" x="529.73" y="-15.4" font-family="Times-12" font-size="14.00"> &#160;Exports</text>
<g id="clust1" class="cluster">
<title>cluster_VendorsModule</title>
<polygon fill="none" stroke="black" stroke-dasharray="1,5" points="8,-70 8,-195 688,-195 688,-70 8,-70"/>
</g>
<g id="clust3" class="cluster">
<title>cluster_VendorsModule_imports</title>
<polygon fill="none" stroke="black" points="449,-78 449,-130 680,-130 680,-78 449,-78"/>
</g>
<g id="clust6" class="cluster">
<title>cluster_VendorsModule_providers</title>
<polygon fill="none" stroke="black" points="16,-78 16,-130 441,-130 441,-78 16,-78"/>
</g>
<!-- DatabaseModule -->
<g id="node1" class="node">
<title>DatabaseModule</title>
<polygon fill="#8dd3c7" stroke="black" points="672.35,-122 669.35,-126 648.35,-126 645.35,-122 561.65,-122 561.65,-86 672.35,-86 672.35,-122"/>
<text text-anchor="middle" x="617" y="-99.8" font-family="Times,serif" font-size="14.00">DatabaseModule</text>
</g>
<!-- VendorsModule -->
<g id="node3" class="node">
<title>VendorsModule</title>
<polygon fill="#8dd3c7" stroke="black" points="553.48,-187 550.48,-191 529.48,-191 526.48,-187 446.52,-187 446.52,-151 553.48,-151 553.48,-187"/>
<text text-anchor="middle" x="500" y="-164.8" font-family="Times,serif" font-size="14.00">VendorsModule</text>
</g>
<!-- DatabaseModule&#45;&gt;VendorsModule -->
<g id="edge1" class="edge">
<title>DatabaseModule&#45;&gt;VendorsModule</title>
<path fill="none" stroke="black" d="M561.33,-104C553.71,-104 548.44,-104 548.44,-104 548.44,-104 548.44,-140.89 548.44,-140.89"/>
<polygon fill="black" stroke="black" points="544.94,-140.89 548.44,-150.89 551.94,-140.89 544.94,-140.89"/>
</g>
<!-- RmqModule -->
<g id="node2" class="node">
<title>RmqModule</title>
<polygon fill="#8dd3c7" stroke="black" points="543.28,-122 540.28,-126 519.28,-126 516.28,-122 456.72,-122 456.72,-86 543.28,-86 543.28,-122"/>
<text text-anchor="middle" x="500" y="-99.8" font-family="Times,serif" font-size="14.00">RmqModule</text>
</g>
<!-- RmqModule&#45;&gt;VendorsModule -->
<g id="edge2" class="edge">
<title>RmqModule&#45;&gt;VendorsModule</title>
<path fill="none" stroke="black" d="M514.46,-122.11C514.46,-122.11 514.46,-140.99 514.46,-140.99"/>
<polygon fill="black" stroke="black" points="510.96,-140.99 514.46,-150.99 517.96,-140.99 510.96,-140.99"/>
</g>
<!-- RmqModule&#45;&gt;VendorsModule -->
<g id="edge3" class="edge">
<title>RmqModule&#45;&gt;VendorsModule</title>
<path fill="none" stroke="black" d="M485.54,-122.11C485.54,-122.11 485.54,-140.99 485.54,-140.99"/>
<polygon fill="black" stroke="black" points="482.04,-140.99 485.54,-150.99 489.04,-140.99 482.04,-140.99"/>
</g>
<!-- VendorRepository -->
<g id="node4" class="node">
<title>VendorRepository</title>
<ellipse fill="#fdb462" stroke="black" cx="351" cy="-104" rx="82.25" ry="18"/>
<text text-anchor="middle" x="351" y="-99.8" font-family="Times,serif" font-size="14.00">VendorRepository</text>
</g>
<!-- VendorRepository&#45;&gt;VendorsModule -->
<g id="edge4" class="edge">
<title>VendorRepository&#45;&gt;VendorsModule</title>
<path fill="none" stroke="black" d="M433.58,-104C444.26,-104 451.56,-104 451.56,-104 451.56,-104 451.56,-140.89 451.56,-140.89"/>
<polygon fill="black" stroke="black" points="448.06,-140.89 451.56,-150.89 455.06,-140.89 448.06,-140.89"/>
</g>
<!-- VendorSettingsRepository -->
<g id="node5" class="node">
<title>VendorSettingsRepository</title>
<ellipse fill="#fdb462" stroke="black" cx="137" cy="-104" rx="113.48" ry="18"/>
<text text-anchor="middle" x="137" y="-99.8" font-family="Times,serif" font-size="14.00">VendorSettingsRepository</text>
</g>
<!-- VendorSettingsRepository&#45;&gt;VendorsModule -->
<g id="edge5" class="edge">
<title>VendorSettingsRepository&#45;&gt;VendorsModule</title>
<path fill="none" stroke="black" d="M137,-122.11C137,-141.34 137,-169 137,-169 137,-169 436.44,-169 436.44,-169"/>
<polygon fill="black" stroke="black" points="436.44,-172.5 446.44,-169 436.44,-165.5 436.44,-172.5"/>
</g>
</g>
</svg>
