<?xml version="1.0" encoding="UTF-8" standalone="no"?>
<!DOCTYPE svg PUBLIC "-//W3C//DTD SVG 1.1//EN"
 "http://www.w3.org/Graphics/SVG/1.1/DTD/svg11.dtd">
<!-- Generated by graphviz version 5.0.0 (20220707.1540)
 -->
<!-- Title: dependencies Pages: 1 -->
<svg width="705pt" height="174pt"
 viewBox="0.00 0.00 705.00 173.80" xmlns="http://www.w3.org/2000/svg" xmlns:xlink="http://www.w3.org/1999/xlink">
<g id="graph0" class="graph" transform="scale(1 1) rotate(0) translate(4 169.8)">
<title>dependencies</title>
<polygon fill="white" stroke="transparent" points="-4,4 -4,-169.8 701,-169.8 701,4 -4,4"/>
<text text-anchor="middle" x="348.5" y="-8.2" font-family="sans-serif" font-size="14.00">dependencies</text>
<g id="clust1" class="cluster">
<title>cluster_VendorsModule</title>
<polygon fill="none" stroke="black" stroke-dasharray="1,5" points="8,-32.8 8,-157.8 689,-157.8 689,-32.8 8,-32.8"/>
</g>
<g id="clust6" class="cluster">
<title>cluster_VendorsModule_providers</title>
<polygon fill="none" stroke="black" points="255,-40.8 255,-92.8 681,-92.8 681,-40.8 255,-40.8"/>
</g>
<g id="clust3" class="cluster">
<title>cluster_VendorsModule_imports</title>
<polygon fill="none" stroke="black" points="16,-40.8 16,-92.8 247,-92.8 247,-40.8 16,-40.8"/>
</g>
<!-- DatabaseModule -->
<g id="node1" class="node">
<title>DatabaseModule</title>
<polygon fill="#8dd3c7" stroke="black" points="239.36,-84.8 236.36,-88.8 215.36,-88.8 212.36,-84.8 128.64,-84.8 128.64,-48.8 239.36,-48.8 239.36,-84.8"/>
<text text-anchor="middle" x="184" y="-62.6" font-family="Times,serif" font-size="14.00">DatabaseModule</text>
</g>
<!-- VendorsModule -->
<g id="node3" class="node">
<title>VendorsModule</title>
<polygon fill="#8dd3c7" stroke="black" points="333.49,-149.8 330.49,-153.8 309.49,-153.8 306.49,-149.8 226.51,-149.8 226.51,-113.8 333.49,-113.8 333.49,-149.8"/>
<text text-anchor="middle" x="280" y="-127.6" font-family="Times,serif" font-size="14.00">VendorsModule</text>
</g>
<!-- DatabaseModule&#45;&gt;VendorsModule -->
<g id="edge1" class="edge">
<title>DatabaseModule&#45;&gt;VendorsModule</title>
<path fill="none" stroke="black" d="M232.97,-84.91C232.97,-84.91 232.97,-103.79 232.97,-103.79"/>
<polygon fill="black" stroke="black" points="229.47,-103.79 232.97,-113.79 236.47,-103.79 229.47,-103.79"/>
</g>
<!-- RmqModule -->
<g id="node2" class="node">
<title>RmqModule</title>
<polygon fill="#8dd3c7" stroke="black" points="110.28,-84.8 107.28,-88.8 86.28,-88.8 83.28,-84.8 23.72,-84.8 23.72,-48.8 110.28,-48.8 110.28,-84.8"/>
<text text-anchor="middle" x="67" y="-62.6" font-family="Times,serif" font-size="14.00">RmqModule</text>
</g>
<!-- RmqModule&#45;&gt;VendorsModule -->
<g id="edge2" class="edge">
<title>RmqModule&#45;&gt;VendorsModule</title>
<path fill="none" stroke="black" d="M67,-84.91C67,-104.14 67,-131.8 67,-131.8 67,-131.8 216.25,-131.8 216.25,-131.8"/>
<polygon fill="black" stroke="black" points="216.25,-135.3 226.25,-131.8 216.25,-128.3 216.25,-135.3"/>
</g>
<!-- VendorRepository -->
<g id="node4" class="node">
<title>VendorRepository</title>
<ellipse fill="#fdb462" stroke="black" cx="591" cy="-66.8" rx="82.26" ry="18"/>
<text text-anchor="middle" x="591" y="-62.6" font-family="Times,serif" font-size="14.00">VendorRepository</text>
</g>
<!-- VendorRepository&#45;&gt;VendorsModule -->
<g id="edge3" class="edge">
<title>VendorRepository&#45;&gt;VendorsModule</title>
<path fill="none" stroke="black" d="M591,-84.91C591,-104.14 591,-131.8 591,-131.8 591,-131.8 343.82,-131.8 343.82,-131.8"/>
<polygon fill="black" stroke="black" points="343.82,-128.3 333.82,-131.8 343.82,-135.3 343.82,-128.3"/>
</g>
<!-- VendorSettingsRepository -->
<g id="node5" class="node">
<title>VendorSettingsRepository</title>
<ellipse fill="#fdb462" stroke="black" cx="377" cy="-66.8" rx="113.5" ry="18"/>
<text text-anchor="middle" x="377" y="-62.6" font-family="Times,serif" font-size="14.00">VendorSettingsRepository</text>
</g>
<!-- VendorSettingsRepository&#45;&gt;VendorsModule -->
<g id="edge4" class="edge">
<title>VendorSettingsRepository&#45;&gt;VendorsModule</title>
<path fill="none" stroke="black" d="M298.5,-79.95C298.5,-79.95 298.5,-103.49 298.5,-103.49"/>
<polygon fill="black" stroke="black" points="295,-103.49 298.5,-113.49 302,-103.49 295,-103.49"/>
</g>
</g>
</svg>
