<?xml version="1.0" encoding="UTF-8" standalone="no"?>
<!DOCTYPE svg PUBLIC "-//W3C//DTD SVG 1.1//EN"
 "http://www.w3.org/Graphics/SVG/1.1/DTD/svg11.dtd">
<!-- Generated by graphviz version 5.0.0 (20220707.1540)
 -->
<!-- Title: dependencies Pages: 1 -->
<svg width="723pt" height="174pt"
 viewBox="0.00 0.00 723.00 173.80" xmlns="http://www.w3.org/2000/svg" xmlns:xlink="http://www.w3.org/1999/xlink">
<g id="graph0" class="graph" transform="scale(1 1) rotate(0) translate(4 169.8)">
<title>dependencies</title>
<polygon fill="white" stroke="transparent" points="-4,4 -4,-169.8 719,-169.8 719,4 -4,4"/>
<text text-anchor="middle" x="357.5" y="-8.2" font-family="sans-serif" font-size="14.00">dependencies</text>
<g id="clust1" class="cluster">
<title>cluster_PaymentServiceModule</title>
<polygon fill="none" stroke="black" stroke-dasharray="1,5" points="8,-32.8 8,-157.8 707,-157.8 707,-32.8 8,-32.8"/>
</g>
<g id="clust6" class="cluster">
<title>cluster_PaymentServiceModule_providers</title>
<polygon fill="none" stroke="black" points="255,-40.8 255,-92.8 699,-92.8 699,-40.8 255,-40.8"/>
</g>
<g id="clust3" class="cluster">
<title>cluster_PaymentServiceModule_imports</title>
<polygon fill="none" stroke="black" points="16,-40.8 16,-92.8 247,-92.8 247,-40.8 16,-40.8"/>
</g>
<!-- DatabaseModule -->
<g id="node1" class="node">
<title>DatabaseModule</title>
<polygon fill="#8dd3c7" stroke="black" points="239.36,-84.8 236.36,-88.8 215.36,-88.8 212.36,-84.8 128.64,-84.8 128.64,-48.8 239.36,-48.8 239.36,-84.8"/>
<text text-anchor="middle" x="184" y="-62.6" font-family="Times,serif" font-size="14.00">DatabaseModule</text>
</g>
<!-- PaymentServiceModule -->
<g id="node3" class="node">
<title>PaymentServiceModule</title>
<polygon fill="#8dd3c7" stroke="black" points="166.03,-149.8 163.03,-153.8 142.03,-153.8 139.03,-149.8 15.97,-149.8 15.97,-113.8 166.03,-113.8 166.03,-149.8"/>
<text text-anchor="middle" x="91" y="-127.6" font-family="Times,serif" font-size="14.00">PaymentServiceModule</text>
</g>
<!-- DatabaseModule&#45;&gt;PaymentServiceModule -->
<g id="edge1" class="edge">
<title>DatabaseModule&#45;&gt;PaymentServiceModule</title>
<path fill="none" stroke="black" d="M147.42,-84.91C147.42,-84.91 147.42,-103.79 147.42,-103.79"/>
<polygon fill="black" stroke="black" points="143.92,-103.79 147.42,-113.79 150.92,-103.79 143.92,-103.79"/>
</g>
<!-- RmqModule -->
<g id="node2" class="node">
<title>RmqModule</title>
<polygon fill="#8dd3c7" stroke="black" points="110.28,-84.8 107.28,-88.8 86.28,-88.8 83.28,-84.8 23.72,-84.8 23.72,-48.8 110.28,-48.8 110.28,-84.8"/>
<text text-anchor="middle" x="67" y="-62.6" font-family="Times,serif" font-size="14.00">RmqModule</text>
</g>
<!-- RmqModule&#45;&gt;PaymentServiceModule -->
<g id="edge2" class="edge">
<title>RmqModule&#45;&gt;PaymentServiceModule</title>
<path fill="none" stroke="black" d="M58.32,-84.91C58.32,-84.91 58.32,-103.79 58.32,-103.79"/>
<polygon fill="black" stroke="black" points="54.82,-103.79 58.32,-113.79 61.82,-103.79 54.82,-103.79"/>
</g>
<!-- RmqModule&#45;&gt;PaymentServiceModule -->
<g id="edge3" class="edge">
<title>RmqModule&#45;&gt;PaymentServiceModule</title>
<path fill="none" stroke="black" d="M40.97,-84.91C40.97,-84.91 40.97,-103.79 40.97,-103.79"/>
<polygon fill="black" stroke="black" points="37.47,-103.79 40.97,-113.79 44.47,-103.79 37.47,-103.79"/>
</g>
<!-- RmqModule&#45;&gt;PaymentServiceModule -->
<g id="edge4" class="edge">
<title>RmqModule&#45;&gt;PaymentServiceModule</title>
<path fill="none" stroke="black" d="M93.03,-84.91C93.03,-84.91 93.03,-103.79 93.03,-103.79"/>
<polygon fill="black" stroke="black" points="89.53,-103.79 93.03,-113.79 96.53,-103.79 89.53,-103.79"/>
</g>
<!-- RmqModule&#45;&gt;PaymentServiceModule -->
<g id="edge5" class="edge">
<title>RmqModule&#45;&gt;PaymentServiceModule</title>
<path fill="none" stroke="black" d="M75.68,-84.91C75.68,-84.91 75.68,-103.79 75.68,-103.79"/>
<polygon fill="black" stroke="black" points="72.18,-103.79 75.68,-113.79 79.18,-103.79 72.18,-103.79"/>
</g>
<!-- VendorPayoutRepository -->
<g id="node4" class="node">
<title>VendorPayoutRepository</title>
<ellipse fill="#fdb462" stroke="black" cx="582" cy="-66.8" rx="109.41" ry="18"/>
<text text-anchor="middle" x="582" y="-62.6" font-family="Times,serif" font-size="14.00">VendorPayoutRepository</text>
</g>
<!-- VendorPayoutRepository&#45;&gt;PaymentServiceModule -->
<g id="edge6" class="edge">
<title>VendorPayoutRepository&#45;&gt;PaymentServiceModule</title>
<path fill="none" stroke="black" d="M582,-85.08C582,-106.12 582,-137.8 582,-137.8 582,-137.8 176.11,-137.8 176.11,-137.8"/>
<polygon fill="black" stroke="black" points="176.11,-134.3 166.11,-137.8 176.11,-141.3 176.11,-134.3"/>
</g>
<!-- VendorPayoutService -->
<g id="node5" class="node">
<title>VendorPayoutService</title>
<ellipse fill="#fdb462" stroke="black" cx="359" cy="-66.8" rx="95.56" ry="18"/>
<text text-anchor="middle" x="359" y="-62.6" font-family="Times,serif" font-size="14.00">VendorPayoutService</text>
</g>
<!-- VendorPayoutService&#45;&gt;PaymentServiceModule -->
<g id="edge7" class="edge">
<title>VendorPayoutService&#45;&gt;PaymentServiceModule</title>
<path fill="none" stroke="black" d="M359,-84.82C359,-102.17 359,-125.8 359,-125.8 359,-125.8 176.37,-125.8 176.37,-125.8"/>
<polygon fill="black" stroke="black" points="176.37,-122.3 166.37,-125.8 176.37,-129.3 176.37,-122.3"/>
</g>
</g>
</svg>
