<?xml version="1.0" encoding="UTF-8" standalone="no"?>
<!DOCTYPE svg PUBLIC "-//W3C//DTD SVG 1.1//EN"
 "http://www.w3.org/Graphics/SVG/1.1/DTD/svg11.dtd">
<!-- Generated by graphviz version 2.47.0 (20210316.0004)
 -->
<!-- Title: dependencies Pages: 1 -->
<svg width="1807pt" height="211pt"
 viewBox="0.00 0.00 1807.00 211.00" xmlns="http://www.w3.org/2000/svg" xmlns:xlink="http://www.w3.org/1999/xlink">
<g id="graph0" class="graph" transform="scale(1 1) rotate(0) translate(4 207)">
<title>dependencies</title>
<polygon fill="white" stroke="transparent" points="-4,4 -4,-207 1803,-207 1803,4 -4,4"/>
<text text-anchor="start" x="878.51" y="-42.4" font-family="Times-12" font-weight="bold" font-size="14.00">Legend</text>
<polygon fill="#ffffb3" stroke="transparent" points="665.5,-10 665.5,-30 685.5,-30 685.5,-10 665.5,-10"/>
<text text-anchor="start" x="689.13" y="-15.4" font-family="Times-12" font-size="14.00"> &#160;Declarations</text>
<polygon fill="#8dd3c7" stroke="transparent" points="778.5,-10 778.5,-30 798.5,-30 798.5,-10 778.5,-10"/>
<text text-anchor="start" x="802.23" y="-15.4" font-family="Times-12" font-size="14.00"> &#160;Module</text>
<polygon fill="#80b1d3" stroke="transparent" points="864.5,-10 864.5,-30 884.5,-30 884.5,-10 864.5,-10"/>
<text text-anchor="start" x="888.28" y="-15.4" font-family="Times-12" font-size="14.00"> &#160;Bootstrap</text>
<polygon fill="#fdb462" stroke="transparent" points="961.5,-10 961.5,-30 981.5,-30 981.5,-10 961.5,-10"/>
<text text-anchor="start" x="985.17" y="-15.4" font-family="Times-12" font-size="14.00"> &#160;Providers</text>
<polygon fill="#fb8072" stroke="transparent" points="1057.5,-10 1057.5,-30 1077.5,-30 1077.5,-10 1057.5,-10"/>
<text text-anchor="start" x="1081.23" y="-15.4" font-family="Times-12" font-size="14.00"> &#160;Exports</text>
<g id="clust1" class="cluster">
<title>cluster_PaymentServiceModule</title>
<polygon fill="none" stroke="black" stroke-dasharray="1,5" points="8,-70 8,-195 1791,-195 1791,-70 8,-70"/>
</g>
<g id="clust3" class="cluster">
<title>cluster_PaymentServiceModule_imports</title>
<polygon fill="none" stroke="black" points="1552,-78 1552,-130 1783,-130 1783,-78 1552,-78"/>
</g>
<g id="clust6" class="cluster">
<title>cluster_PaymentServiceModule_providers</title>
<polygon fill="none" stroke="black" points="16,-78 16,-130 1544,-130 1544,-78 16,-78"/>
</g>
<!-- DatabaseModule -->
<g id="node1" class="node">
<title>DatabaseModule</title>
<polygon fill="#8dd3c7" stroke="black" points="1775.35,-122 1772.35,-126 1751.35,-126 1748.35,-122 1664.65,-122 1664.65,-86 1775.35,-86 1775.35,-122"/>
<text text-anchor="middle" x="1720" y="-99.8" font-family="Times,serif" font-size="14.00">DatabaseModule</text>
</g>
<!-- PaymentServiceModule -->
<g id="node3" class="node">
<title>PaymentServiceModule</title>
<polygon fill="#8dd3c7" stroke="black" points="1592.02,-187 1589.02,-191 1568.02,-191 1565.02,-187 1441.98,-187 1441.98,-151 1592.02,-151 1592.02,-187"/>
<text text-anchor="middle" x="1517" y="-164.8" font-family="Times,serif" font-size="14.00">PaymentServiceModule</text>
</g>
<!-- DatabaseModule&#45;&gt;PaymentServiceModule -->
<g id="edge1" class="edge">
<title>DatabaseModule&#45;&gt;PaymentServiceModule</title>
<path fill="none" stroke="black" d="M1720,-122.11C1720,-141.34 1720,-169 1720,-169 1720,-169 1602.3,-169 1602.3,-169"/>
<polygon fill="black" stroke="black" points="1602.3,-165.5 1592.3,-169 1602.3,-172.5 1602.3,-165.5"/>
</g>
<!-- RmqModule -->
<g id="node2" class="node">
<title>RmqModule</title>
<polygon fill="#8dd3c7" stroke="black" points="1646.28,-122 1643.28,-126 1622.28,-126 1619.28,-122 1559.72,-122 1559.72,-86 1646.28,-86 1646.28,-122"/>
<text text-anchor="middle" x="1603" y="-99.8" font-family="Times,serif" font-size="14.00">RmqModule</text>
</g>
<!-- RmqModule&#45;&gt;PaymentServiceModule -->
<g id="edge2" class="edge">
<title>RmqModule&#45;&gt;PaymentServiceModule</title>
<path fill="none" stroke="black" d="M1564.28,-122.11C1564.28,-122.11 1564.28,-140.99 1564.28,-140.99"/>
<polygon fill="black" stroke="black" points="1560.78,-140.99 1564.28,-150.99 1567.78,-140.99 1560.78,-140.99"/>
</g>
<!-- RmqModule&#45;&gt;PaymentServiceModule -->
<g id="edge3" class="edge">
<title>RmqModule&#45;&gt;PaymentServiceModule</title>
<path fill="none" stroke="black" d="M1568.94,-122.11C1568.94,-122.11 1568.94,-140.99 1568.94,-140.99"/>
<polygon fill="black" stroke="black" points="1565.44,-140.99 1568.94,-150.99 1572.44,-140.99 1565.44,-140.99"/>
</g>
<!-- RmqModule&#45;&gt;PaymentServiceModule -->
<g id="edge4" class="edge">
<title>RmqModule&#45;&gt;PaymentServiceModule</title>
<path fill="none" stroke="black" d="M1573.6,-122.11C1573.6,-122.11 1573.6,-140.99 1573.6,-140.99"/>
<polygon fill="black" stroke="black" points="1570.1,-140.99 1573.6,-150.99 1577.1,-140.99 1570.1,-140.99"/>
</g>
<!-- RmqModule&#45;&gt;PaymentServiceModule -->
<g id="edge5" class="edge">
<title>RmqModule&#45;&gt;PaymentServiceModule</title>
<path fill="none" stroke="black" d="M1578.27,-122.11C1578.27,-122.11 1578.27,-140.99 1578.27,-140.99"/>
<polygon fill="black" stroke="black" points="1574.77,-140.99 1578.27,-150.99 1581.77,-140.99 1574.77,-140.99"/>
</g>
<!-- RmqModule&#45;&gt;PaymentServiceModule -->
<g id="edge6" class="edge">
<title>RmqModule&#45;&gt;PaymentServiceModule</title>
<path fill="none" stroke="black" d="M1582.93,-122.11C1582.93,-122.11 1582.93,-140.99 1582.93,-140.99"/>
<polygon fill="black" stroke="black" points="1579.43,-140.99 1582.93,-150.99 1586.43,-140.99 1579.43,-140.99"/>
</g>
<!-- RmqModule&#45;&gt;PaymentServiceModule -->
<g id="edge7" class="edge">
<title>RmqModule&#45;&gt;PaymentServiceModule</title>
<path fill="none" stroke="black" d="M1587.6,-122.11C1587.6,-122.11 1587.6,-140.99 1587.6,-140.99"/>
<polygon fill="black" stroke="black" points="1584.1,-140.99 1587.6,-150.99 1591.1,-140.99 1584.1,-140.99"/>
</g>
<!-- DriverWalletRepository -->
<g id="node4" class="node">
<title>DriverWalletRepository</title>
<ellipse fill="#fdb462" stroke="black" cx="1432" cy="-104" rx="104.21" ry="18"/>
<text text-anchor="middle" x="1432" y="-99.8" font-family="Times,serif" font-size="14.00">DriverWalletRepository</text>
</g>
<!-- DriverWalletRepository&#45;&gt;PaymentServiceModule -->
<g id="edge8" class="edge">
<title>DriverWalletRepository&#45;&gt;PaymentServiceModule</title>
<path fill="none" stroke="black" d="M1489.05,-119.08C1489.05,-119.08 1489.05,-140.76 1489.05,-140.76"/>
<polygon fill="black" stroke="black" points="1485.55,-140.76 1489.05,-150.76 1492.55,-140.76 1485.55,-140.76"/>
</g>
<!-- DriverWalletService -->
<g id="node5" class="node">
<title>DriverWalletService</title>
<ellipse fill="#fdb462" stroke="black" cx="1219" cy="-104" rx="90.86" ry="18"/>
<text text-anchor="middle" x="1219" y="-99.8" font-family="Times,serif" font-size="14.00">DriverWalletService</text>
</g>
<!-- DriverWalletService&#45;&gt;PaymentServiceModule -->
<g id="edge9" class="edge">
<title>DriverWalletService&#45;&gt;PaymentServiceModule</title>
<path fill="none" stroke="black" d="M1219,-122.24C1219,-137.57 1219,-157 1219,-157 1219,-157 1431.8,-157 1431.8,-157"/>
<polygon fill="black" stroke="black" points="1431.8,-160.5 1441.8,-157 1431.8,-153.5 1431.8,-160.5"/>
</g>
<!-- DriverWalletTransactionRepository -->
<g id="node6" class="node">
<title>DriverWalletTransactionRepository</title>
<ellipse fill="#fdb462" stroke="black" cx="960" cy="-104" rx="149.87" ry="18"/>
<text text-anchor="middle" x="960" y="-99.8" font-family="Times,serif" font-size="14.00">DriverWalletTransactionRepository</text>
</g>
<!-- DriverWalletTransactionRepository&#45;&gt;PaymentServiceModule -->
<g id="edge10" class="edge">
<title>DriverWalletTransactionRepository&#45;&gt;PaymentServiceModule</title>
<path fill="none" stroke="black" d="M960,-122.03C960,-139.06 960,-162 960,-162 960,-162 1431.88,-162 1431.88,-162"/>
<polygon fill="black" stroke="black" points="1431.88,-165.5 1441.88,-162 1431.88,-158.5 1431.88,-165.5"/>
</g>
<!-- FlutterwaveService -->
<g id="node7" class="node">
<title>FlutterwaveService</title>
<ellipse fill="#fdb462" stroke="black" cx="706" cy="-104" rx="86.23" ry="18"/>
<text text-anchor="middle" x="706" y="-99.8" font-family="Times,serif" font-size="14.00">FlutterwaveService</text>
</g>
<!-- FlutterwaveService&#45;&gt;PaymentServiceModule -->
<g id="edge11" class="edge">
<title>FlutterwaveService&#45;&gt;PaymentServiceModule</title>
<path fill="none" stroke="black" d="M706,-122.22C706,-140.83 706,-167 706,-167 706,-167 1431.79,-167 1431.79,-167"/>
<polygon fill="black" stroke="black" points="1431.79,-170.5 1441.79,-167 1431.79,-163.5 1431.79,-170.5"/>
</g>
<!-- PaymentRepository -->
<g id="node8" class="node">
<title>PaymentRepository</title>
<ellipse fill="#fdb462" stroke="black" cx="515" cy="-104" rx="87.42" ry="18"/>
<text text-anchor="middle" x="515" y="-99.8" font-family="Times,serif" font-size="14.00">PaymentRepository</text>
</g>
<!-- PaymentRepository&#45;&gt;PaymentServiceModule -->
<g id="edge12" class="edge">
<title>PaymentRepository&#45;&gt;PaymentServiceModule</title>
<path fill="none" stroke="black" d="M515,-122.22C515,-142.37 515,-172 515,-172 515,-172 1431.69,-172 1431.69,-172"/>
<polygon fill="black" stroke="black" points="1431.69,-175.5 1441.69,-172 1431.69,-168.5 1431.69,-175.5"/>
</g>
<!-- PaystackService -->
<g id="node9" class="node">
<title>PaystackService</title>
<ellipse fill="#fdb462" stroke="black" cx="335" cy="-104" rx="74.13" ry="18"/>
<text text-anchor="middle" x="335" y="-99.8" font-family="Times,serif" font-size="14.00">PaystackService</text>
</g>
<!-- PaystackService&#45;&gt;PaymentServiceModule -->
<g id="edge13" class="edge">
<title>PaystackService&#45;&gt;PaymentServiceModule</title>
<path fill="none" stroke="black" d="M335,-122.04C335,-143.66 335,-177 335,-177 335,-177 1431.71,-177 1431.71,-177"/>
<polygon fill="black" stroke="black" points="1431.71,-180.5 1441.71,-177 1431.71,-173.5 1431.71,-180.5"/>
</g>
<!-- VendorPayoutRepository -->
<g id="node10" class="node">
<title>VendorPayoutRepository</title>
<ellipse fill="#fdb462" stroke="black" cx="133" cy="-104" rx="109.4" ry="18"/>
<text text-anchor="middle" x="133" y="-99.8" font-family="Times,serif" font-size="14.00">VendorPayoutRepository</text>
</g>
<!-- VendorPayoutRepository&#45;&gt;PaymentServiceModule -->
<g id="edge14" class="edge">
<title>VendorPayoutRepository&#45;&gt;PaymentServiceModule</title>
<path fill="none" stroke="black" d="M133,-122.09C133,-145.13 133,-182 133,-182 133,-182 1431.61,-182 1431.61,-182"/>
<polygon fill="black" stroke="black" points="1431.61,-185.5 1441.61,-182 1431.61,-178.5 1431.61,-185.5"/>
</g>
</g>
</svg>
