<?xml version="1.0" encoding="UTF-8" standalone="no"?>
<!DOCTYPE svg PUBLIC "-//W3C//DTD SVG 1.1//EN"
 "http://www.w3.org/Graphics/SVG/1.1/DTD/svg11.dtd">
<!-- Generated by graphviz version 5.0.0 (20220707.1540)
 -->
<!-- Title: dependencies Pages: 1 -->
<svg width="581pt" height="174pt"
 viewBox="0.00 0.00 581.00 173.80" xmlns="http://www.w3.org/2000/svg" xmlns:xlink="http://www.w3.org/1999/xlink">
<g id="graph0" class="graph" transform="scale(1 1) rotate(0) translate(4 169.8)">
<title>dependencies</title>
<polygon fill="white" stroke="transparent" points="-4,4 -4,-169.8 577,-169.8 577,4 -4,4"/>
<text text-anchor="middle" x="286.5" y="-8.2" font-family="sans-serif" font-size="14.00">dependencies</text>
<g id="clust1" class="cluster">
<title>cluster_UsersServiceModule</title>
<polygon fill="none" stroke="black" stroke-dasharray="1,5" points="8,-32.8 8,-157.8 565,-157.8 565,-32.8 8,-32.8"/>
</g>
<g id="clust6" class="cluster">
<title>cluster_UsersServiceModule_providers</title>
<polygon fill="none" stroke="black" points="255,-40.8 255,-92.8 557,-92.8 557,-40.8 255,-40.8"/>
</g>
<g id="clust3" class="cluster">
<title>cluster_UsersServiceModule_imports</title>
<polygon fill="none" stroke="black" points="16,-40.8 16,-92.8 247,-92.8 247,-40.8 16,-40.8"/>
</g>
<!-- DatabaseModule -->
<g id="node1" class="node">
<title>DatabaseModule</title>
<polygon fill="#8dd3c7" stroke="black" points="239.36,-84.8 236.36,-88.8 215.36,-88.8 212.36,-84.8 128.64,-84.8 128.64,-48.8 239.36,-48.8 239.36,-84.8"/>
<text text-anchor="middle" x="184" y="-62.6" font-family="Times,serif" font-size="14.00">DatabaseModule</text>
</g>
<!-- UsersServiceModule -->
<g id="node3" class="node">
<title>UsersServiceModule</title>
<polygon fill="#8dd3c7" stroke="black" points="250.91,-149.8 247.91,-153.8 226.91,-153.8 223.91,-149.8 117.09,-149.8 117.09,-113.8 250.91,-113.8 250.91,-149.8"/>
<text text-anchor="middle" x="184" y="-127.6" font-family="Times,serif" font-size="14.00">UsersServiceModule</text>
</g>
<!-- DatabaseModule&#45;&gt;UsersServiceModule -->
<g id="edge1" class="edge">
<title>DatabaseModule&#45;&gt;UsersServiceModule</title>
<path fill="none" stroke="black" d="M184,-84.91C184,-84.91 184,-103.79 184,-103.79"/>
<polygon fill="black" stroke="black" points="180.5,-103.79 184,-113.79 187.5,-103.79 180.5,-103.79"/>
</g>
<!-- RmqModule -->
<g id="node2" class="node">
<title>RmqModule</title>
<polygon fill="#8dd3c7" stroke="black" points="110.28,-84.8 107.28,-88.8 86.28,-88.8 83.28,-84.8 23.72,-84.8 23.72,-48.8 110.28,-48.8 110.28,-84.8"/>
<text text-anchor="middle" x="67" y="-62.6" font-family="Times,serif" font-size="14.00">RmqModule</text>
</g>
<!-- RmqModule&#45;&gt;UsersServiceModule -->
<g id="edge2" class="edge">
<title>RmqModule&#45;&gt;UsersServiceModule</title>
<path fill="none" stroke="black" d="M110.52,-60.8C118.74,-60.8 124.81,-60.8 124.81,-60.8 124.81,-60.8 124.81,-103.52 124.81,-103.52"/>
<polygon fill="black" stroke="black" points="121.31,-103.52 124.81,-113.52 128.31,-103.52 121.31,-103.52"/>
</g>
<!-- RmqModule&#45;&gt;UsersServiceModule -->
<g id="edge3" class="edge">
<title>RmqModule&#45;&gt;UsersServiceModule</title>
<path fill="none" stroke="black" d="M110.37,-72.8C116.66,-72.8 121.05,-72.8 121.05,-72.8 121.05,-72.8 121.05,-103.78 121.05,-103.78"/>
<polygon fill="black" stroke="black" points="117.55,-103.78 121.05,-113.78 124.55,-103.78 117.55,-103.78"/>
</g>
<!-- UserRepository -->
<g id="node4" class="node">
<title>UserRepository</title>
<ellipse fill="#fdb462" stroke="black" cx="477" cy="-66.8" rx="71.8" ry="18"/>
<text text-anchor="middle" x="477" y="-62.6" font-family="Times,serif" font-size="14.00">UserRepository</text>
</g>
<!-- UserRepository&#45;&gt;UsersServiceModule -->
<g id="edge4" class="edge">
<title>UserRepository&#45;&gt;UsersServiceModule</title>
<path fill="none" stroke="black" d="M477,-84.91C477,-104.14 477,-131.8 477,-131.8 477,-131.8 260.85,-131.8 260.85,-131.8"/>
<polygon fill="black" stroke="black" points="260.85,-128.3 250.85,-131.8 260.85,-135.3 260.85,-128.3"/>
</g>
<!-- UsersService -->
<g id="node5" class="node">
<title>UsersService</title>
<ellipse fill="#fdb462" stroke="black" cx="325" cy="-66.8" rx="61.97" ry="18"/>
<text text-anchor="middle" x="325" y="-62.6" font-family="Times,serif" font-size="14.00">UsersService</text>
</g>
<!-- UsersService&#45;&gt;UsersServiceModule -->
<g id="edge5" class="edge">
<title>UsersService&#45;&gt;UsersServiceModule</title>
<path fill="none" stroke="black" d="M262.81,-66.8C252.49,-66.8 245.07,-66.8 245.07,-66.8 245.07,-66.8 245.07,-103.69 245.07,-103.69"/>
<polygon fill="black" stroke="black" points="241.57,-103.69 245.07,-113.69 248.57,-103.69 241.57,-103.69"/>
</g>
</g>
</svg>
