<?xml version="1.0" encoding="UTF-8" standalone="no"?>
<!DOCTYPE svg PUBLIC "-//W3C//DTD SVG 1.1//EN"
 "http://www.w3.org/Graphics/SVG/1.1/DTD/svg11.dtd">
<!-- Generated by graphviz version 2.47.0 (20210316.0004)
 -->
<!-- Title: dependencies Pages: 1 -->
<svg width="872pt" height="211pt"
 viewBox="0.00 0.00 872.00 211.00" xmlns="http://www.w3.org/2000/svg" xmlns:xlink="http://www.w3.org/1999/xlink">
<g id="graph0" class="graph" transform="scale(1 1) rotate(0) translate(4 207)">
<title>dependencies</title>
<polygon fill="white" stroke="transparent" points="-4,4 -4,-207 868,-207 868,4 -4,4"/>
<text text-anchor="start" x="411.01" y="-42.4" font-family="Times-12" font-weight="bold" font-size="14.00">Legend</text>
<polygon fill="#ffffb3" stroke="transparent" points="198,-10 198,-30 218,-30 218,-10 198,-10"/>
<text text-anchor="start" x="221.63" y="-15.4" font-family="Times-12" font-size="14.00"> &#160;Declarations</text>
<polygon fill="#8dd3c7" stroke="transparent" points="311,-10 311,-30 331,-30 331,-10 311,-10"/>
<text text-anchor="start" x="334.73" y="-15.4" font-family="Times-12" font-size="14.00"> &#160;Module</text>
<polygon fill="#80b1d3" stroke="transparent" points="397,-10 397,-30 417,-30 417,-10 397,-10"/>
<text text-anchor="start" x="420.78" y="-15.4" font-family="Times-12" font-size="14.00"> &#160;Bootstrap</text>
<polygon fill="#fdb462" stroke="transparent" points="494,-10 494,-30 514,-30 514,-10 494,-10"/>
<text text-anchor="start" x="517.67" y="-15.4" font-family="Times-12" font-size="14.00"> &#160;Providers</text>
<polygon fill="#fb8072" stroke="transparent" points="590,-10 590,-30 610,-30 610,-10 590,-10"/>
<text text-anchor="start" x="613.73" y="-15.4" font-family="Times-12" font-size="14.00"> &#160;Exports</text>
<g id="clust1" class="cluster">
<title>cluster_UsersServiceModule</title>
<polygon fill="none" stroke="black" stroke-dasharray="1,5" points="8,-70 8,-195 856,-195 856,-70 8,-70"/>
</g>
<g id="clust6" class="cluster">
<title>cluster_UsersServiceModule_providers</title>
<polygon fill="none" stroke="black" points="255,-78 255,-130 848,-130 848,-78 255,-78"/>
</g>
<g id="clust3" class="cluster">
<title>cluster_UsersServiceModule_imports</title>
<polygon fill="none" stroke="black" points="16,-78 16,-130 247,-130 247,-78 16,-78"/>
</g>
<!-- DatabaseModule -->
<g id="node1" class="node">
<title>DatabaseModule</title>
<polygon fill="#8dd3c7" stroke="black" points="239.35,-122 236.35,-126 215.35,-126 212.35,-122 128.65,-122 128.65,-86 239.35,-86 239.35,-122"/>
<text text-anchor="middle" x="184" y="-99.8" font-family="Times,serif" font-size="14.00">DatabaseModule</text>
</g>
<!-- UsersServiceModule -->
<g id="node3" class="node">
<title>UsersServiceModule</title>
<polygon fill="#8dd3c7" stroke="black" points="325.9,-187 322.9,-191 301.9,-191 298.9,-187 192.1,-187 192.1,-151 325.9,-151 325.9,-187"/>
<text text-anchor="middle" x="259" y="-164.8" font-family="Times,serif" font-size="14.00">UsersServiceModule</text>
</g>
<!-- DatabaseModule&#45;&gt;UsersServiceModule -->
<g id="edge1" class="edge">
<title>DatabaseModule&#45;&gt;UsersServiceModule</title>
<path fill="none" stroke="black" d="M215.86,-122.11C215.86,-122.11 215.86,-140.99 215.86,-140.99"/>
<polygon fill="black" stroke="black" points="212.36,-140.99 215.86,-150.99 219.36,-140.99 212.36,-140.99"/>
</g>
<!-- RmqModule -->
<g id="node2" class="node">
<title>RmqModule</title>
<polygon fill="#8dd3c7" stroke="black" points="110.28,-122 107.28,-126 86.28,-126 83.28,-122 23.72,-122 23.72,-86 110.28,-86 110.28,-122"/>
<text text-anchor="middle" x="67" y="-99.8" font-family="Times,serif" font-size="14.00">RmqModule</text>
</g>
<!-- RmqModule&#45;&gt;UsersServiceModule -->
<g id="edge2" class="edge">
<title>RmqModule&#45;&gt;UsersServiceModule</title>
<path fill="none" stroke="black" d="M81.46,-122.02C81.46,-139.37 81.46,-163 81.46,-163 81.46,-163 182.13,-163 182.13,-163"/>
<polygon fill="black" stroke="black" points="182.13,-166.5 192.13,-163 182.13,-159.5 182.13,-166.5"/>
</g>
<!-- RmqModule&#45;&gt;UsersServiceModule -->
<g id="edge3" class="edge">
<title>RmqModule&#45;&gt;UsersServiceModule</title>
<path fill="none" stroke="black" d="M52.54,-122.28C52.54,-143.32 52.54,-175 52.54,-175 52.54,-175 182.25,-175 182.25,-175"/>
<polygon fill="black" stroke="black" points="182.25,-178.5 192.25,-175 182.25,-171.5 182.25,-178.5"/>
</g>
<!-- AddressBookRepository -->
<g id="node4" class="node">
<title>AddressBookRepository</title>
<ellipse fill="#fdb462" stroke="black" cx="734" cy="-104" rx="105.96" ry="18"/>
<text text-anchor="middle" x="734" y="-99.8" font-family="Times,serif" font-size="14.00">AddressBookRepository</text>
</g>
<!-- AddressBookRepository&#45;&gt;UsersServiceModule -->
<g id="edge4" class="edge">
<title>AddressBookRepository&#45;&gt;UsersServiceModule</title>
<path fill="none" stroke="black" d="M734,-122.28C734,-143.32 734,-175 734,-175 734,-175 335.8,-175 335.8,-175"/>
<polygon fill="black" stroke="black" points="335.8,-171.5 325.8,-175 335.8,-178.5 335.8,-171.5"/>
</g>
<!-- AddressBookService -->
<g id="node5" class="node">
<title>AddressBookService</title>
<ellipse fill="#fdb462" stroke="black" cx="517" cy="-104" rx="92.62" ry="18"/>
<text text-anchor="middle" x="517" y="-99.8" font-family="Times,serif" font-size="14.00">AddressBookService</text>
</g>
<!-- AddressBookService&#45;&gt;UsersServiceModule -->
<g id="edge5" class="edge">
<title>AddressBookService&#45;&gt;UsersServiceModule</title>
<path fill="none" stroke="black" d="M517,-122.02C517,-139.37 517,-163 517,-163 517,-163 335.78,-163 335.78,-163"/>
<polygon fill="black" stroke="black" points="335.78,-159.5 325.78,-163 335.78,-166.5 335.78,-159.5"/>
</g>
<!-- UserRepository -->
<g id="node6" class="node">
<title>UserRepository</title>
<ellipse fill="#fdb462" stroke="black" cx="335" cy="-104" rx="71.79" ry="18"/>
<text text-anchor="middle" x="335" y="-99.8" font-family="Times,serif" font-size="14.00">UserRepository</text>
</g>
<!-- UserRepository&#45;&gt;UsersServiceModule -->
<g id="edge6" class="edge">
<title>UserRepository&#45;&gt;UsersServiceModule</title>
<path fill="none" stroke="black" d="M294.53,-119.08C294.53,-119.08 294.53,-140.76 294.53,-140.76"/>
<polygon fill="black" stroke="black" points="291.03,-140.76 294.53,-150.76 298.03,-140.76 291.03,-140.76"/>
</g>
</g>
</svg>
