<?xml version="1.0" encoding="UTF-8" standalone="no"?>
<!DOCTYPE svg PUBLIC "-//W3C//DTD SVG 1.1//EN"
 "http://www.w3.org/Graphics/SVG/1.1/DTD/svg11.dtd">
<!-- Generated by graphviz version 5.0.0 (20220707.1540)
 -->
<!-- Title: dependencies Pages: 1 -->
<svg width="1034pt" height="174pt"
 viewBox="0.00 0.00 1034.00 173.80" xmlns="http://www.w3.org/2000/svg" xmlns:xlink="http://www.w3.org/1999/xlink">
<g id="graph0" class="graph" transform="scale(1 1) rotate(0) translate(4 169.8)">
<title>dependencies</title>
<polygon fill="white" stroke="transparent" points="-4,4 -4,-169.8 1030,-169.8 1030,4 -4,4"/>
<text text-anchor="middle" x="513" y="-8.2" font-family="sans-serif" font-size="14.00">dependencies</text>
<g id="clust1" class="cluster">
<title>cluster_ListingsModule</title>
<polygon fill="none" stroke="black" stroke-dasharray="1,5" points="8,-32.8 8,-157.8 1018,-157.8 1018,-32.8 8,-32.8"/>
</g>
<g id="clust3" class="cluster">
<title>cluster_ListingsModule_imports</title>
<polygon fill="none" stroke="black" points="779,-40.8 779,-92.8 1010,-92.8 1010,-40.8 779,-40.8"/>
</g>
<g id="clust6" class="cluster">
<title>cluster_ListingsModule_providers</title>
<polygon fill="none" stroke="black" points="16,-40.8 16,-92.8 771,-92.8 771,-40.8 16,-40.8"/>
</g>
<!-- DatabaseModule -->
<g id="node1" class="node">
<title>DatabaseModule</title>
<polygon fill="#8dd3c7" stroke="black" points="1002.36,-84.8 999.36,-88.8 978.36,-88.8 975.36,-84.8 891.64,-84.8 891.64,-48.8 1002.36,-48.8 1002.36,-84.8"/>
<text text-anchor="middle" x="947" y="-62.6" font-family="Times,serif" font-size="14.00">DatabaseModule</text>
</g>
<!-- ListingsModule -->
<g id="node3" class="node">
<title>ListingsModule</title>
<polygon fill="#8dd3c7" stroke="black" points="699.17,-149.8 696.17,-153.8 675.17,-153.8 672.17,-149.8 594.83,-149.8 594.83,-113.8 699.17,-113.8 699.17,-149.8"/>
<text text-anchor="middle" x="647" y="-127.6" font-family="Times,serif" font-size="14.00">ListingsModule</text>
</g>
<!-- DatabaseModule&#45;&gt;ListingsModule -->
<g id="edge1" class="edge">
<title>DatabaseModule&#45;&gt;ListingsModule</title>
<path fill="none" stroke="black" d="M947,-85.08C947,-106.12 947,-137.8 947,-137.8 947,-137.8 709.26,-137.8 709.26,-137.8"/>
<polygon fill="black" stroke="black" points="709.26,-134.3 699.26,-137.8 709.26,-141.3 709.26,-134.3"/>
</g>
<!-- RmqModule -->
<g id="node2" class="node">
<title>RmqModule</title>
<polygon fill="#8dd3c7" stroke="black" points="873.28,-84.8 870.28,-88.8 849.28,-88.8 846.28,-84.8 786.72,-84.8 786.72,-48.8 873.28,-48.8 873.28,-84.8"/>
<text text-anchor="middle" x="830" y="-62.6" font-family="Times,serif" font-size="14.00">RmqModule</text>
</g>
<!-- RmqModule&#45;&gt;ListingsModule -->
<g id="edge2" class="edge">
<title>RmqModule&#45;&gt;ListingsModule</title>
<path fill="none" stroke="black" d="M830,-84.82C830,-102.17 830,-125.8 830,-125.8 830,-125.8 709.44,-125.8 709.44,-125.8"/>
<polygon fill="black" stroke="black" points="709.44,-122.3 699.44,-125.8 709.44,-129.3 709.44,-122.3"/>
</g>
<!-- ListingCategoryRepository -->
<g id="node4" class="node">
<title>ListingCategoryRepository</title>
<ellipse fill="#fdb462" stroke="black" cx="647" cy="-66.8" rx="116.36" ry="18"/>
<text text-anchor="middle" x="647" y="-62.6" font-family="Times,serif" font-size="14.00">ListingCategoryRepository</text>
</g>
<!-- ListingCategoryRepository&#45;&gt;ListingsModule -->
<g id="edge3" class="edge">
<title>ListingCategoryRepository&#45;&gt;ListingsModule</title>
<path fill="none" stroke="black" d="M647,-84.91C647,-84.91 647,-103.79 647,-103.79"/>
<polygon fill="black" stroke="black" points="643.5,-103.79 647,-113.79 650.5,-103.79 643.5,-103.79"/>
</g>
<!-- ListingMenuRepository -->
<g id="node5" class="node">
<title>ListingMenuRepository</title>
<ellipse fill="#fdb462" stroke="black" cx="410" cy="-66.8" rx="103.12" ry="18"/>
<text text-anchor="middle" x="410" y="-62.6" font-family="Times,serif" font-size="14.00">ListingMenuRepository</text>
</g>
<!-- ListingMenuRepository&#45;&gt;ListingsModule -->
<g id="edge4" class="edge">
<title>ListingMenuRepository&#45;&gt;ListingsModule</title>
<path fill="none" stroke="black" d="M410,-84.82C410,-102.17 410,-125.8 410,-125.8 410,-125.8 584.7,-125.8 584.7,-125.8"/>
<polygon fill="black" stroke="black" points="584.7,-129.3 594.7,-125.8 584.7,-122.3 584.7,-129.3"/>
</g>
<!-- ListingOptionGroupRepository -->
<g id="node6" class="node">
<title>ListingOptionGroupRepository</title>
<ellipse fill="#fdb462" stroke="black" cx="156" cy="-66.8" rx="132.06" ry="18"/>
<text text-anchor="middle" x="156" y="-62.6" font-family="Times,serif" font-size="14.00">ListingOptionGroupRepository</text>
</g>
<!-- ListingOptionGroupRepository&#45;&gt;ListingsModule -->
<g id="edge5" class="edge">
<title>ListingOptionGroupRepository&#45;&gt;ListingsModule</title>
<path fill="none" stroke="black" d="M156,-85.08C156,-106.12 156,-137.8 156,-137.8 156,-137.8 584.45,-137.8 584.45,-137.8"/>
<polygon fill="black" stroke="black" points="584.45,-141.3 594.45,-137.8 584.45,-134.3 584.45,-141.3"/>
</g>
</g>
</svg>
