<?xml version="1.0" encoding="UTF-8" standalone="no"?>
<!DOCTYPE svg PUBLIC "-//W3C//DTD SVG 1.1//EN"
 "http://www.w3.org/Graphics/SVG/1.1/DTD/svg11.dtd">
<!-- Generated by graphviz version 2.47.0 (20210316.0004)
 -->
<!-- Title: dependencies Pages: 1 -->
<svg width="1294pt" height="211pt"
 viewBox="0.00 0.00 1294.00 211.00" xmlns="http://www.w3.org/2000/svg" xmlns:xlink="http://www.w3.org/1999/xlink">
<g id="graph0" class="graph" transform="scale(1 1) rotate(0) translate(4 207)">
<title>dependencies</title>
<polygon fill="white" stroke="transparent" points="-4,4 -4,-207 1290,-207 1290,4 -4,4"/>
<text text-anchor="start" x="622.01" y="-42.4" font-family="Times-12" font-weight="bold" font-size="14.00">Legend</text>
<polygon fill="#ffffb3" stroke="transparent" points="409,-10 409,-30 429,-30 429,-10 409,-10"/>
<text text-anchor="start" x="432.63" y="-15.4" font-family="Times-12" font-size="14.00"> &#160;Declarations</text>
<polygon fill="#8dd3c7" stroke="transparent" points="522,-10 522,-30 542,-30 542,-10 522,-10"/>
<text text-anchor="start" x="545.73" y="-15.4" font-family="Times-12" font-size="14.00"> &#160;Module</text>
<polygon fill="#80b1d3" stroke="transparent" points="608,-10 608,-30 628,-30 628,-10 608,-10"/>
<text text-anchor="start" x="631.78" y="-15.4" font-family="Times-12" font-size="14.00"> &#160;Bootstrap</text>
<polygon fill="#fdb462" stroke="transparent" points="705,-10 705,-30 725,-30 725,-10 705,-10"/>
<text text-anchor="start" x="728.67" y="-15.4" font-family="Times-12" font-size="14.00"> &#160;Providers</text>
<polygon fill="#fb8072" stroke="transparent" points="801,-10 801,-30 821,-30 821,-10 801,-10"/>
<text text-anchor="start" x="824.73" y="-15.4" font-family="Times-12" font-size="14.00"> &#160;Exports</text>
<g id="clust1" class="cluster">
<title>cluster_ListingsModule</title>
<polygon fill="none" stroke="black" stroke-dasharray="1,5" points="8,-70 8,-195 1278,-195 1278,-70 8,-70"/>
</g>
<g id="clust3" class="cluster">
<title>cluster_ListingsModule_imports</title>
<polygon fill="none" stroke="black" points="1039,-78 1039,-130 1270,-130 1270,-78 1039,-78"/>
</g>
<g id="clust6" class="cluster">
<title>cluster_ListingsModule_providers</title>
<polygon fill="none" stroke="black" points="16,-78 16,-130 1031,-130 1031,-78 16,-78"/>
</g>
<!-- DatabaseModule -->
<g id="node1" class="node">
<title>DatabaseModule</title>
<polygon fill="#8dd3c7" stroke="black" points="1262.35,-122 1259.35,-126 1238.35,-126 1235.35,-122 1151.65,-122 1151.65,-86 1262.35,-86 1262.35,-122"/>
<text text-anchor="middle" x="1207" y="-99.8" font-family="Times,serif" font-size="14.00">DatabaseModule</text>
</g>
<!-- ListingsModule -->
<g id="node3" class="node">
<title>ListingsModule</title>
<polygon fill="#8dd3c7" stroke="black" points="1142.16,-187 1139.16,-191 1118.16,-191 1115.16,-187 1037.84,-187 1037.84,-151 1142.16,-151 1142.16,-187"/>
<text text-anchor="middle" x="1090" y="-164.8" font-family="Times,serif" font-size="14.00">ListingsModule</text>
</g>
<!-- DatabaseModule&#45;&gt;ListingsModule -->
<g id="edge1" class="edge">
<title>DatabaseModule&#45;&gt;ListingsModule</title>
<path fill="none" stroke="black" d="M1151.52,-104C1143.48,-104 1137.86,-104 1137.86,-104 1137.86,-104 1137.86,-140.89 1137.86,-140.89"/>
<polygon fill="black" stroke="black" points="1134.36,-140.89 1137.86,-150.89 1141.36,-140.89 1134.36,-140.89"/>
</g>
<!-- RmqModule -->
<g id="node2" class="node">
<title>RmqModule</title>
<polygon fill="#8dd3c7" stroke="black" points="1133.28,-122 1130.28,-126 1109.28,-126 1106.28,-122 1046.72,-122 1046.72,-86 1133.28,-86 1133.28,-122"/>
<text text-anchor="middle" x="1090" y="-99.8" font-family="Times,serif" font-size="14.00">RmqModule</text>
</g>
<!-- RmqModule&#45;&gt;ListingsModule -->
<g id="edge2" class="edge">
<title>RmqModule&#45;&gt;ListingsModule</title>
<path fill="none" stroke="black" d="M1081.32,-122.11C1081.32,-122.11 1081.32,-140.99 1081.32,-140.99"/>
<polygon fill="black" stroke="black" points="1077.82,-140.99 1081.32,-150.99 1084.82,-140.99 1077.82,-140.99"/>
</g>
<!-- RmqModule&#45;&gt;ListingsModule -->
<g id="edge3" class="edge">
<title>RmqModule&#45;&gt;ListingsModule</title>
<path fill="none" stroke="black" d="M1063.97,-122.11C1063.97,-122.11 1063.97,-140.99 1063.97,-140.99"/>
<polygon fill="black" stroke="black" points="1060.47,-140.99 1063.97,-150.99 1067.47,-140.99 1060.47,-140.99"/>
</g>
<!-- RmqModule&#45;&gt;ListingsModule -->
<g id="edge4" class="edge">
<title>RmqModule&#45;&gt;ListingsModule</title>
<path fill="none" stroke="black" d="M1116.03,-122.11C1116.03,-122.11 1116.03,-140.99 1116.03,-140.99"/>
<polygon fill="black" stroke="black" points="1112.53,-140.99 1116.03,-150.99 1119.53,-140.99 1112.53,-140.99"/>
</g>
<!-- RmqModule&#45;&gt;ListingsModule -->
<g id="edge5" class="edge">
<title>RmqModule&#45;&gt;ListingsModule</title>
<path fill="none" stroke="black" d="M1098.68,-122.11C1098.68,-122.11 1098.68,-140.99 1098.68,-140.99"/>
<polygon fill="black" stroke="black" points="1095.18,-140.99 1098.68,-150.99 1102.18,-140.99 1095.18,-140.99"/>
</g>
<!-- ListingCategoryRepository -->
<g id="node4" class="node">
<title>ListingCategoryRepository</title>
<ellipse fill="#fdb462" stroke="black" cx="907" cy="-104" rx="116.35" ry="18"/>
<text text-anchor="middle" x="907" y="-99.8" font-family="Times,serif" font-size="14.00">ListingCategoryRepository</text>
</g>
<!-- ListingCategoryRepository&#45;&gt;ListingsModule -->
<g id="edge6" class="edge">
<title>ListingCategoryRepository&#45;&gt;ListingsModule</title>
<path fill="none" stroke="black" d="M1023.35,-104C1034.72,-104 1042.14,-104 1042.14,-104 1042.14,-104 1042.14,-140.89 1042.14,-140.89"/>
<polygon fill="black" stroke="black" points="1038.64,-140.89 1042.14,-150.89 1045.64,-140.89 1038.64,-140.89"/>
</g>
<!-- ListingMenuRepository -->
<g id="node5" class="node">
<title>ListingMenuRepository</title>
<ellipse fill="#fdb462" stroke="black" cx="670" cy="-104" rx="103.11" ry="18"/>
<text text-anchor="middle" x="670" y="-99.8" font-family="Times,serif" font-size="14.00">ListingMenuRepository</text>
</g>
<!-- ListingMenuRepository&#45;&gt;ListingsModule -->
<g id="edge7" class="edge">
<title>ListingMenuRepository&#45;&gt;ListingsModule</title>
<path fill="none" stroke="black" d="M670,-122.03C670,-138.4 670,-160 670,-160 670,-160 1027.66,-160 1027.66,-160"/>
<polygon fill="black" stroke="black" points="1027.66,-163.5 1037.66,-160 1027.66,-156.5 1027.66,-163.5"/>
</g>
<!-- ListingOptionGroupRepository -->
<g id="node6" class="node">
<title>ListingOptionGroupRepository</title>
<ellipse fill="#fdb462" stroke="black" cx="416" cy="-104" rx="132.05" ry="18"/>
<text text-anchor="middle" x="416" y="-99.8" font-family="Times,serif" font-size="14.00">ListingOptionGroupRepository</text>
</g>
<!-- ListingOptionGroupRepository&#45;&gt;ListingsModule -->
<g id="edge8" class="edge">
<title>ListingOptionGroupRepository&#45;&gt;ListingsModule</title>
<path fill="none" stroke="black" d="M416,-122.11C416,-141.34 416,-169 416,-169 416,-169 1027.67,-169 1027.67,-169"/>
<polygon fill="black" stroke="black" points="1027.67,-172.5 1037.67,-169 1027.67,-165.5 1027.67,-172.5"/>
</g>
<!-- ScheduledListingRepository -->
<g id="node7" class="node">
<title>ScheduledListingRepository</title>
<ellipse fill="#fdb462" stroke="black" cx="145" cy="-104" rx="121.01" ry="18"/>
<text text-anchor="middle" x="145" y="-99.8" font-family="Times,serif" font-size="14.00">ScheduledListingRepository</text>
</g>
<!-- ScheduledListingRepository&#45;&gt;ListingsModule -->
<g id="edge9" class="edge">
<title>ScheduledListingRepository&#45;&gt;ListingsModule</title>
<path fill="none" stroke="black" d="M145,-122.29C145,-144.21 145,-178 145,-178 145,-178 1027.51,-178 1027.51,-178"/>
<polygon fill="black" stroke="black" points="1027.51,-181.5 1037.51,-178 1027.51,-174.5 1027.51,-181.5"/>
</g>
</g>
</svg>
