<?xml version="1.0" encoding="UTF-8" standalone="no"?>
<!DOCTYPE svg PUBLIC "-//W3C//DTD SVG 1.1//EN"
 "http://www.w3.org/Graphics/SVG/1.1/DTD/svg11.dtd">
<!-- Generated by graphviz version 2.47.0 (20210316.0004)
 -->
<!-- Title: dependencies Pages: 1 -->
<svg width="504pt" height="211pt"
 viewBox="0.00 0.00 504.00 211.00" xmlns="http://www.w3.org/2000/svg" xmlns:xlink="http://www.w3.org/1999/xlink">
<g id="graph0" class="graph" transform="scale(1 1) rotate(0) translate(4 207)">
<title>dependencies</title>
<polygon fill="white" stroke="transparent" points="-4,4 -4,-207 500,-207 500,4 -4,4"/>
<text text-anchor="start" x="227.01" y="-42.4" font-family="Times-12" font-weight="bold" font-size="14.00">Legend</text>
<polygon fill="#ffffb3" stroke="transparent" points="14,-10 14,-30 34,-30 34,-10 14,-10"/>
<text text-anchor="start" x="37.63" y="-15.4" font-family="Times-12" font-size="14.00"> &#160;Declarations</text>
<polygon fill="#8dd3c7" stroke="transparent" points="127,-10 127,-30 147,-30 147,-10 127,-10"/>
<text text-anchor="start" x="150.73" y="-15.4" font-family="Times-12" font-size="14.00"> &#160;Module</text>
<polygon fill="#80b1d3" stroke="transparent" points="213,-10 213,-30 233,-30 233,-10 213,-10"/>
<text text-anchor="start" x="236.78" y="-15.4" font-family="Times-12" font-size="14.00"> &#160;Bootstrap</text>
<polygon fill="#fdb462" stroke="transparent" points="310,-10 310,-30 330,-30 330,-10 310,-10"/>
<text text-anchor="start" x="333.67" y="-15.4" font-family="Times-12" font-size="14.00"> &#160;Providers</text>
<polygon fill="#fb8072" stroke="transparent" points="406,-10 406,-30 426,-30 426,-10 406,-10"/>
<text text-anchor="start" x="429.73" y="-15.4" font-family="Times-12" font-size="14.00"> &#160;Exports</text>
<g id="clust1" class="cluster">
<title>cluster_LocationModule</title>
<polygon fill="none" stroke="black" stroke-dasharray="1,5" points="103,-70 103,-195 393,-195 393,-70 103,-70"/>
</g>
<g id="clust6" class="cluster">
<title>cluster_LocationModule_providers</title>
<polygon fill="none" stroke="black" points="221,-78 221,-130 385,-130 385,-78 221,-78"/>
</g>
<g id="clust3" class="cluster">
<title>cluster_LocationModule_imports</title>
<polygon fill="none" stroke="black" points="111,-78 111,-130 213,-130 213,-78 111,-78"/>
</g>
<!-- RmqModule -->
<g id="node1" class="node">
<title>RmqModule</title>
<polygon fill="#8dd3c7" stroke="black" points="205.28,-122 202.28,-126 181.28,-126 178.28,-122 118.72,-122 118.72,-86 205.28,-86 205.28,-122"/>
<text text-anchor="middle" x="162" y="-99.8" font-family="Times,serif" font-size="14.00">RmqModule</text>
</g>
<!-- LocationModule -->
<g id="node2" class="node">
<title>LocationModule</title>
<polygon fill="#8dd3c7" stroke="black" points="220.81,-187 217.81,-191 196.81,-191 193.81,-187 111.19,-187 111.19,-151 220.81,-151 220.81,-187"/>
<text text-anchor="middle" x="166" y="-164.8" font-family="Times,serif" font-size="14.00">LocationModule</text>
</g>
<!-- RmqModule&#45;&gt;LocationModule -->
<g id="edge1" class="edge">
<title>RmqModule&#45;&gt;LocationModule</title>
<path fill="none" stroke="black" d="M135.97,-122.11C135.97,-122.11 135.97,-140.99 135.97,-140.99"/>
<polygon fill="black" stroke="black" points="132.47,-140.99 135.97,-150.99 139.47,-140.99 132.47,-140.99"/>
</g>
<!-- RmqModule&#45;&gt;LocationModule -->
<g id="edge2" class="edge">
<title>RmqModule&#45;&gt;LocationModule</title>
<path fill="none" stroke="black" d="M153.32,-122.11C153.32,-122.11 153.32,-140.99 153.32,-140.99"/>
<polygon fill="black" stroke="black" points="149.82,-140.99 153.32,-150.99 156.82,-140.99 149.82,-140.99"/>
</g>
<!-- RmqModule&#45;&gt;LocationModule -->
<g id="edge3" class="edge">
<title>RmqModule&#45;&gt;LocationModule</title>
<path fill="none" stroke="black" d="M170.68,-122.11C170.68,-122.11 170.68,-140.99 170.68,-140.99"/>
<polygon fill="black" stroke="black" points="167.18,-140.99 170.68,-150.99 174.18,-140.99 167.18,-140.99"/>
</g>
<!-- RmqModule&#45;&gt;LocationModule -->
<g id="edge4" class="edge">
<title>RmqModule&#45;&gt;LocationModule</title>
<path fill="none" stroke="black" d="M188.03,-122.11C188.03,-122.11 188.03,-140.99 188.03,-140.99"/>
<polygon fill="black" stroke="black" points="184.53,-140.99 188.03,-150.99 191.53,-140.99 184.53,-140.99"/>
</g>
<!-- LocationService -->
<g id="node3" class="node">
<title>LocationService</title>
<ellipse fill="#fdb462" stroke="black" cx="303" cy="-104" rx="74.14" ry="18"/>
<text text-anchor="middle" x="303" y="-99.8" font-family="Times,serif" font-size="14.00">LocationService</text>
</g>
<!-- LocationService&#45;&gt;LocationModule -->
<g id="edge5" class="edge">
<title>LocationService&#45;&gt;LocationModule</title>
<path fill="none" stroke="black" d="M228.29,-104C219.19,-104 213.02,-104 213.02,-104 213.02,-104 213.02,-140.89 213.02,-140.89"/>
<polygon fill="black" stroke="black" points="209.52,-140.89 213.02,-150.89 216.52,-140.89 209.52,-140.89"/>
</g>
</g>
</svg>
