<?xml version="1.0" encoding="UTF-8" standalone="no"?>
<!DOCTYPE svg PUBLIC "-//W3C//DTD SVG 1.1//EN"
 "http://www.w3.org/Graphics/SVG/1.1/DTD/svg11.dtd">
<!-- Generated by graphviz version 5.0.0 (20220707.1540)
 -->
<!-- Title: dependencies Pages: 1 -->
<svg width="655pt" height="174pt"
 viewBox="0.00 0.00 655.00 173.80" xmlns="http://www.w3.org/2000/svg" xmlns:xlink="http://www.w3.org/1999/xlink">
<g id="graph0" class="graph" transform="scale(1 1) rotate(0) translate(4 169.8)">
<title>dependencies</title>
<polygon fill="white" stroke="transparent" points="-4,4 -4,-169.8 651,-169.8 651,4 -4,4"/>
<text text-anchor="middle" x="323.5" y="-8.2" font-family="sans-serif" font-size="14.00">dependencies</text>
<g id="clust1" class="cluster">
<title>cluster_OrdersServiceModule</title>
<polygon fill="none" stroke="black" stroke-dasharray="1,5" points="8,-32.8 8,-157.8 639,-157.8 639,-32.8 8,-32.8"/>
</g>
<g id="clust6" class="cluster">
<title>cluster_OrdersServiceModule_providers</title>
<polygon fill="none" stroke="black" points="255,-40.8 255,-92.8 631,-92.8 631,-40.8 255,-40.8"/>
</g>
<g id="clust3" class="cluster">
<title>cluster_OrdersServiceModule_imports</title>
<polygon fill="none" stroke="black" points="16,-40.8 16,-92.8 247,-92.8 247,-40.8 16,-40.8"/>
</g>
<!-- DatabaseModule -->
<g id="node1" class="node">
<title>DatabaseModule</title>
<polygon fill="#8dd3c7" stroke="black" points="239.36,-84.8 236.36,-88.8 215.36,-88.8 212.36,-84.8 128.64,-84.8 128.64,-48.8 239.36,-48.8 239.36,-84.8"/>
<text text-anchor="middle" x="184" y="-62.6" font-family="Times,serif" font-size="14.00">DatabaseModule</text>
</g>
<!-- OrdersServiceModule -->
<g id="node3" class="node">
<title>OrdersServiceModule</title>
<polygon fill="#8dd3c7" stroke="black" points="204.63,-149.8 201.63,-153.8 180.63,-153.8 177.63,-149.8 65.37,-149.8 65.37,-113.8 204.63,-113.8 204.63,-149.8"/>
<text text-anchor="middle" x="135" y="-127.6" font-family="Times,serif" font-size="14.00">OrdersServiceModule</text>
</g>
<!-- DatabaseModule&#45;&gt;OrdersServiceModule -->
<g id="edge1" class="edge">
<title>DatabaseModule&#45;&gt;OrdersServiceModule</title>
<path fill="none" stroke="black" d="M166.69,-84.91C166.69,-84.91 166.69,-103.79 166.69,-103.79"/>
<polygon fill="black" stroke="black" points="163.19,-103.79 166.69,-113.79 170.19,-103.79 163.19,-103.79"/>
</g>
<!-- RmqModule -->
<g id="node2" class="node">
<title>RmqModule</title>
<polygon fill="#8dd3c7" stroke="black" points="110.28,-84.8 107.28,-88.8 86.28,-88.8 83.28,-84.8 23.72,-84.8 23.72,-48.8 110.28,-48.8 110.28,-84.8"/>
<text text-anchor="middle" x="67" y="-62.6" font-family="Times,serif" font-size="14.00">RmqModule</text>
</g>
<!-- RmqModule&#45;&gt;OrdersServiceModule -->
<g id="edge2" class="edge">
<title>RmqModule&#45;&gt;OrdersServiceModule</title>
<path fill="none" stroke="black" d="M76.49,-84.91C76.49,-84.91 76.49,-103.79 76.49,-103.79"/>
<polygon fill="black" stroke="black" points="72.99,-103.79 76.49,-113.79 79.99,-103.79 72.99,-103.79"/>
</g>
<!-- RmqModule&#45;&gt;OrdersServiceModule -->
<g id="edge3" class="edge">
<title>RmqModule&#45;&gt;OrdersServiceModule</title>
<path fill="none" stroke="black" d="M87.79,-84.91C87.79,-84.91 87.79,-103.79 87.79,-103.79"/>
<polygon fill="black" stroke="black" points="84.29,-103.79 87.79,-113.79 91.29,-103.79 84.29,-103.79"/>
</g>
<!-- RmqModule&#45;&gt;OrdersServiceModule -->
<g id="edge4" class="edge">
<title>RmqModule&#45;&gt;OrdersServiceModule</title>
<path fill="none" stroke="black" d="M99.09,-84.91C99.09,-84.91 99.09,-103.79 99.09,-103.79"/>
<polygon fill="black" stroke="black" points="95.59,-103.79 99.09,-113.79 102.59,-103.79 95.59,-103.79"/>
</g>
<!-- OrderRepository -->
<g id="node4" class="node">
<title>OrderRepository</title>
<ellipse fill="#fdb462" stroke="black" cx="547" cy="-66.8" rx="75.88" ry="18"/>
<text text-anchor="middle" x="547" y="-62.6" font-family="Times,serif" font-size="14.00">OrderRepository</text>
</g>
<!-- OrderRepository&#45;&gt;OrdersServiceModule -->
<g id="edge5" class="edge">
<title>OrderRepository&#45;&gt;OrdersServiceModule</title>
<path fill="none" stroke="black" d="M547,-85.08C547,-106.12 547,-137.8 547,-137.8 547,-137.8 214.89,-137.8 214.89,-137.8"/>
<polygon fill="black" stroke="black" points="214.89,-134.3 204.89,-137.8 214.89,-141.3 214.89,-134.3"/>
</g>
<!-- OrdersServiceService -->
<g id="node5" class="node">
<title>OrdersServiceService</title>
<ellipse fill="#fdb462" stroke="black" cx="358" cy="-66.8" rx="95.46" ry="18"/>
<text text-anchor="middle" x="358" y="-62.6" font-family="Times,serif" font-size="14.00">OrdersServiceService</text>
</g>
<!-- OrdersServiceService&#45;&gt;OrdersServiceModule -->
<g id="edge6" class="edge">
<title>OrdersServiceService&#45;&gt;OrdersServiceModule</title>
<path fill="none" stroke="black" d="M358,-84.82C358,-102.17 358,-125.8 358,-125.8 358,-125.8 214.64,-125.8 214.64,-125.8"/>
<polygon fill="black" stroke="black" points="214.64,-122.3 204.64,-125.8 214.64,-129.3 214.64,-122.3"/>
</g>
</g>
</svg>
