<?xml version="1.0" encoding="UTF-8" standalone="no"?>
<!DOCTYPE svg PUBLIC "-//W3C//DTD SVG 1.1//EN"
 "http://www.w3.org/Graphics/SVG/1.1/DTD/svg11.dtd">
<!-- Generated by graphviz version 2.47.0 (20210316.0004)
 -->
<!-- Title: dependencies Pages: 1 -->
<svg width="504pt" height="211pt"
 viewBox="0.00 0.00 504.00 211.00" xmlns="http://www.w3.org/2000/svg" xmlns:xlink="http://www.w3.org/1999/xlink">
<g id="graph0" class="graph" transform="scale(1 1) rotate(0) translate(4 207)">
<title>dependencies</title>
<polygon fill="white" stroke="transparent" points="-4,4 -4,-207 500,-207 500,4 -4,4"/>
<text text-anchor="start" x="227.01" y="-42.4" font-family="Times-12" font-weight="bold" font-size="14.00">Legend</text>
<polygon fill="#ffffb3" stroke="transparent" points="14,-10 14,-30 34,-30 34,-10 14,-10"/>
<text text-anchor="start" x="37.63" y="-15.4" font-family="Times-12" font-size="14.00"> &#160;Declarations</text>
<polygon fill="#8dd3c7" stroke="transparent" points="127,-10 127,-30 147,-30 147,-10 127,-10"/>
<text text-anchor="start" x="150.73" y="-15.4" font-family="Times-12" font-size="14.00"> &#160;Module</text>
<polygon fill="#80b1d3" stroke="transparent" points="213,-10 213,-30 233,-30 233,-10 213,-10"/>
<text text-anchor="start" x="236.78" y="-15.4" font-family="Times-12" font-size="14.00"> &#160;Bootstrap</text>
<polygon fill="#fdb462" stroke="transparent" points="310,-10 310,-30 330,-30 330,-10 310,-10"/>
<text text-anchor="start" x="333.67" y="-15.4" font-family="Times-12" font-size="14.00"> &#160;Providers</text>
<polygon fill="#fb8072" stroke="transparent" points="406,-10 406,-30 426,-30 426,-10 406,-10"/>
<text text-anchor="start" x="429.73" y="-15.4" font-family="Times-12" font-size="14.00"> &#160;Exports</text>
<g id="clust1" class="cluster">
<title>cluster_OrdersServiceModule</title>
<polygon fill="none" stroke="black" stroke-dasharray="1,5" points="36.5,-70 36.5,-195 459.5,-195 459.5,-70 36.5,-70"/>
</g>
<g id="clust6" class="cluster">
<title>cluster_OrdersServiceModule_providers</title>
<polygon fill="none" stroke="black" points="283.5,-78 283.5,-130 451.5,-130 451.5,-78 283.5,-78"/>
</g>
<g id="clust3" class="cluster">
<title>cluster_OrdersServiceModule_imports</title>
<polygon fill="none" stroke="black" points="44.5,-78 44.5,-130 275.5,-130 275.5,-78 44.5,-78"/>
</g>
<!-- DatabaseModule -->
<g id="node1" class="node">
<title>DatabaseModule</title>
<polygon fill="#8dd3c7" stroke="black" points="267.85,-122 264.85,-126 243.85,-126 240.85,-122 157.15,-122 157.15,-86 267.85,-86 267.85,-122"/>
<text text-anchor="middle" x="212.5" y="-99.8" font-family="Times,serif" font-size="14.00">DatabaseModule</text>
</g>
<!-- OrdersServiceModule -->
<g id="node3" class="node">
<title>OrdersServiceModule</title>
<polygon fill="#8dd3c7" stroke="black" points="184.11,-187 181.11,-191 160.11,-191 157.11,-187 44.89,-187 44.89,-151 184.11,-151 184.11,-187"/>
<text text-anchor="middle" x="114.5" y="-164.8" font-family="Times,serif" font-size="14.00">OrdersServiceModule</text>
</g>
<!-- DatabaseModule&#45;&gt;OrdersServiceModule -->
<g id="edge1" class="edge">
<title>DatabaseModule&#45;&gt;OrdersServiceModule</title>
<path fill="none" stroke="black" d="M170.69,-122.11C170.69,-122.11 170.69,-140.99 170.69,-140.99"/>
<polygon fill="black" stroke="black" points="167.19,-140.99 170.69,-150.99 174.19,-140.99 167.19,-140.99"/>
</g>
<!-- RmqModule -->
<g id="node2" class="node">
<title>RmqModule</title>
<polygon fill="#8dd3c7" stroke="black" points="138.78,-122 135.78,-126 114.78,-126 111.78,-122 52.22,-122 52.22,-86 138.78,-86 138.78,-122"/>
<text text-anchor="middle" x="95.5" y="-99.8" font-family="Times,serif" font-size="14.00">RmqModule</text>
</g>
<!-- RmqModule&#45;&gt;OrdersServiceModule -->
<g id="edge2" class="edge">
<title>RmqModule&#45;&gt;OrdersServiceModule</title>
<path fill="none" stroke="black" d="M76.9,-122.11C76.9,-122.11 76.9,-140.99 76.9,-140.99"/>
<polygon fill="black" stroke="black" points="73.41,-140.99 76.9,-150.99 80.41,-140.99 73.41,-140.99"/>
</g>
<!-- RmqModule&#45;&gt;OrdersServiceModule -->
<g id="edge3" class="edge">
<title>RmqModule&#45;&gt;OrdersServiceModule</title>
<path fill="none" stroke="black" d="M64.51,-122.11C64.51,-122.11 64.51,-140.99 64.51,-140.99"/>
<polygon fill="black" stroke="black" points="61.01,-140.99 64.51,-150.99 68.01,-140.99 61.01,-140.99"/>
</g>
<!-- RmqModule&#45;&gt;OrdersServiceModule -->
<g id="edge4" class="edge">
<title>RmqModule&#45;&gt;OrdersServiceModule</title>
<path fill="none" stroke="black" d="M101.7,-122.11C101.7,-122.11 101.7,-140.99 101.7,-140.99"/>
<polygon fill="black" stroke="black" points="98.2,-140.99 101.7,-150.99 105.2,-140.99 98.2,-140.99"/>
</g>
<!-- RmqModule&#45;&gt;OrdersServiceModule -->
<g id="edge5" class="edge">
<title>RmqModule&#45;&gt;OrdersServiceModule</title>
<path fill="none" stroke="black" d="M89.3,-122.11C89.3,-122.11 89.3,-140.99 89.3,-140.99"/>
<polygon fill="black" stroke="black" points="85.8,-140.99 89.3,-150.99 92.8,-140.99 85.8,-140.99"/>
</g>
<!-- RmqModule&#45;&gt;OrdersServiceModule -->
<g id="edge6" class="edge">
<title>RmqModule&#45;&gt;OrdersServiceModule</title>
<path fill="none" stroke="black" d="M114.1,-122.11C114.1,-122.11 114.1,-140.99 114.1,-140.99"/>
<polygon fill="black" stroke="black" points="110.6,-140.99 114.1,-150.99 117.6,-140.99 110.6,-140.99"/>
</g>
<!-- RmqModule&#45;&gt;OrdersServiceModule -->
<g id="edge7" class="edge">
<title>RmqModule&#45;&gt;OrdersServiceModule</title>
<path fill="none" stroke="black" d="M126.49,-122.11C126.49,-122.11 126.49,-140.99 126.49,-140.99"/>
<polygon fill="black" stroke="black" points="122.99,-140.99 126.49,-150.99 129.99,-140.99 122.99,-140.99"/>
</g>
<!-- OrderRepository -->
<g id="node4" class="node">
<title>OrderRepository</title>
<ellipse fill="#fdb462" stroke="black" cx="367.5" cy="-104" rx="75.86" ry="18"/>
<text text-anchor="middle" x="367.5" y="-99.8" font-family="Times,serif" font-size="14.00">OrderRepository</text>
</g>
<!-- OrderRepository&#45;&gt;OrdersServiceModule -->
<g id="edge8" class="edge">
<title>OrderRepository&#45;&gt;OrdersServiceModule</title>
<path fill="none" stroke="black" d="M367.5,-122.11C367.5,-141.34 367.5,-169 367.5,-169 367.5,-169 194.3,-169 194.3,-169"/>
<polygon fill="black" stroke="black" points="194.3,-165.5 184.3,-169 194.3,-172.5 194.3,-165.5"/>
</g>
</g>
</svg>
