<?xml version="1.0" encoding="UTF-8" standalone="no"?>
<!DOCTYPE svg PUBLIC "-//W3C//DTD SVG 1.1//EN"
 "http://www.w3.org/Graphics/SVG/1.1/DTD/svg11.dtd">
<!-- Generated by graphviz version 2.47.0 (20210316.0004)
 -->
<!-- Title: dependencies Pages: 1 -->
<svg width="504pt" height="211pt"
 viewBox="0.00 0.00 504.00 211.00" xmlns="http://www.w3.org/2000/svg" xmlns:xlink="http://www.w3.org/1999/xlink">
<g id="graph0" class="graph" transform="scale(1 1) rotate(0) translate(4 207)">
<title>dependencies</title>
<polygon fill="white" stroke="transparent" points="-4,4 -4,-207 500,-207 500,4 -4,4"/>
<text text-anchor="start" x="227.01" y="-42.4" font-family="Times-12" font-weight="bold" font-size="14.00">Legend</text>
<polygon fill="#ffffb3" stroke="transparent" points="14,-10 14,-30 34,-30 34,-10 14,-10"/>
<text text-anchor="start" x="37.63" y="-15.4" font-family="Times-12" font-size="14.00"> &#160;Declarations</text>
<polygon fill="#8dd3c7" stroke="transparent" points="127,-10 127,-30 147,-30 147,-10 127,-10"/>
<text text-anchor="start" x="150.73" y="-15.4" font-family="Times-12" font-size="14.00"> &#160;Module</text>
<polygon fill="#80b1d3" stroke="transparent" points="213,-10 213,-30 233,-30 233,-10 213,-10"/>
<text text-anchor="start" x="236.78" y="-15.4" font-family="Times-12" font-size="14.00"> &#160;Bootstrap</text>
<polygon fill="#fdb462" stroke="transparent" points="310,-10 310,-30 330,-30 330,-10 310,-10"/>
<text text-anchor="start" x="333.67" y="-15.4" font-family="Times-12" font-size="14.00"> &#160;Providers</text>
<polygon fill="#fb8072" stroke="transparent" points="406,-10 406,-30 426,-30 426,-10 406,-10"/>
<text text-anchor="start" x="429.73" y="-15.4" font-family="Times-12" font-size="14.00"> &#160;Exports</text>
<g id="clust1" class="cluster">
<title>cluster_ReviewsServiceModule</title>
<polygon fill="none" stroke="black" stroke-dasharray="1,5" points="29.5,-70 29.5,-195 466.5,-195 466.5,-70 29.5,-70"/>
</g>
<g id="clust6" class="cluster">
<title>cluster_ReviewsServiceModule_providers</title>
<polygon fill="none" stroke="black" points="276.5,-78 276.5,-130 458.5,-130 458.5,-78 276.5,-78"/>
</g>
<g id="clust3" class="cluster">
<title>cluster_ReviewsServiceModule_imports</title>
<polygon fill="none" stroke="black" points="37.5,-78 37.5,-130 268.5,-130 268.5,-78 37.5,-78"/>
</g>
<!-- DatabaseModule -->
<g id="node1" class="node">
<title>DatabaseModule</title>
<polygon fill="#8dd3c7" stroke="black" points="260.85,-122 257.85,-126 236.85,-126 233.85,-122 150.15,-122 150.15,-86 260.85,-86 260.85,-122"/>
<text text-anchor="middle" x="205.5" y="-99.8" font-family="Times,serif" font-size="14.00">DatabaseModule</text>
</g>
<!-- ReviewsServiceModule -->
<g id="node3" class="node">
<title>ReviewsServiceModule</title>
<polygon fill="#8dd3c7" stroke="black" points="233.24,-187 230.24,-191 209.24,-191 206.24,-187 83.76,-187 83.76,-151 233.24,-151 233.24,-187"/>
<text text-anchor="middle" x="158.5" y="-164.8" font-family="Times,serif" font-size="14.00">ReviewsServiceModule</text>
</g>
<!-- DatabaseModule&#45;&gt;ReviewsServiceModule -->
<g id="edge1" class="edge">
<title>DatabaseModule&#45;&gt;ReviewsServiceModule</title>
<path fill="none" stroke="black" d="M191.72,-122.11C191.72,-122.11 191.72,-140.99 191.72,-140.99"/>
<polygon fill="black" stroke="black" points="188.22,-140.99 191.72,-150.99 195.22,-140.99 188.22,-140.99"/>
</g>
<!-- RmqModule -->
<g id="node2" class="node">
<title>RmqModule</title>
<polygon fill="#8dd3c7" stroke="black" points="131.78,-122 128.78,-126 107.78,-126 104.78,-122 45.22,-122 45.22,-86 131.78,-86 131.78,-122"/>
<text text-anchor="middle" x="88.5" y="-99.8" font-family="Times,serif" font-size="14.00">RmqModule</text>
</g>
<!-- RmqModule&#45;&gt;ReviewsServiceModule -->
<g id="edge2" class="edge">
<title>RmqModule&#45;&gt;ReviewsServiceModule</title>
<path fill="none" stroke="black" d="M99.72,-122.11C99.72,-122.11 99.72,-140.99 99.72,-140.99"/>
<polygon fill="black" stroke="black" points="96.22,-140.99 99.72,-150.99 103.22,-140.99 96.22,-140.99"/>
</g>
<!-- RmqModule&#45;&gt;ReviewsServiceModule -->
<g id="edge3" class="edge">
<title>RmqModule&#45;&gt;ReviewsServiceModule</title>
<path fill="none" stroke="black" d="M115.8,-122.11C115.8,-122.11 115.8,-140.99 115.8,-140.99"/>
<polygon fill="black" stroke="black" points="112.3,-140.99 115.8,-150.99 119.3,-140.99 112.3,-140.99"/>
</g>
<!-- ReviewRepository -->
<g id="node4" class="node">
<title>ReviewRepository</title>
<ellipse fill="#fdb462" stroke="black" cx="367.5" cy="-104" rx="82.82" ry="18"/>
<text text-anchor="middle" x="367.5" y="-99.8" font-family="Times,serif" font-size="14.00">ReviewRepository</text>
</g>
<!-- ReviewRepository&#45;&gt;ReviewsServiceModule -->
<g id="edge4" class="edge">
<title>ReviewRepository&#45;&gt;ReviewsServiceModule</title>
<path fill="none" stroke="black" d="M367.5,-122.11C367.5,-141.34 367.5,-169 367.5,-169 367.5,-169 243.36,-169 243.36,-169"/>
<polygon fill="black" stroke="black" points="243.36,-165.5 233.36,-169 243.36,-172.5 243.36,-165.5"/>
</g>
</g>
</svg>
