<?xml version="1.0" encoding="UTF-8" standalone="no"?>
<!DOCTYPE svg PUBLIC "-//W3C//DTD SVG 1.1//EN"
 "http://www.w3.org/Graphics/SVG/1.1/DTD/svg11.dtd">
<!-- Generated by graphviz version 5.0.0 (20220707.1540)
 -->
<!-- Title: dependencies Pages: 1 -->
<svg width="625pt" height="174pt"
 viewBox="0.00 0.00 625.00 173.80" xmlns="http://www.w3.org/2000/svg" xmlns:xlink="http://www.w3.org/1999/xlink">
<g id="graph0" class="graph" transform="scale(1 1) rotate(0) translate(4 169.8)">
<title>dependencies</title>
<polygon fill="white" stroke="transparent" points="-4,4 -4,-169.8 621,-169.8 621,4 -4,4"/>
<text text-anchor="middle" x="308.5" y="-8.2" font-family="sans-serif" font-size="14.00">dependencies</text>
<g id="clust1" class="cluster">
<title>cluster_ReviewsServiceModule</title>
<polygon fill="none" stroke="black" stroke-dasharray="1,5" points="8,-32.8 8,-157.8 609,-157.8 609,-32.8 8,-32.8"/>
</g>
<g id="clust3" class="cluster">
<title>cluster_ReviewsServiceModule_imports</title>
<polygon fill="none" stroke="black" points="370,-40.8 370,-92.8 601,-92.8 601,-40.8 370,-40.8"/>
</g>
<g id="clust6" class="cluster">
<title>cluster_ReviewsServiceModule_providers</title>
<polygon fill="none" stroke="black" points="16,-40.8 16,-92.8 362,-92.8 362,-40.8 16,-40.8"/>
</g>
<!-- DatabaseModule -->
<g id="node1" class="node">
<title>DatabaseModule</title>
<polygon fill="#8dd3c7" stroke="black" points="593.36,-84.8 590.36,-88.8 569.36,-88.8 566.36,-84.8 482.64,-84.8 482.64,-48.8 593.36,-48.8 593.36,-84.8"/>
<text text-anchor="middle" x="538" y="-62.6" font-family="Times,serif" font-size="14.00">DatabaseModule</text>
</g>
<!-- ReviewsServiceModule -->
<g id="node3" class="node">
<title>ReviewsServiceModule</title>
<polygon fill="#8dd3c7" stroke="black" points="420.75,-149.8 417.75,-153.8 396.75,-153.8 393.75,-149.8 271.25,-149.8 271.25,-113.8 420.75,-113.8 420.75,-149.8"/>
<text text-anchor="middle" x="346" y="-127.6" font-family="Times,serif" font-size="14.00">ReviewsServiceModule</text>
</g>
<!-- DatabaseModule&#45;&gt;ReviewsServiceModule -->
<g id="edge1" class="edge">
<title>DatabaseModule&#45;&gt;ReviewsServiceModule</title>
<path fill="none" stroke="black" d="M538,-84.91C538,-104.14 538,-131.8 538,-131.8 538,-131.8 430.78,-131.8 430.78,-131.8"/>
<polygon fill="black" stroke="black" points="430.78,-128.3 420.78,-131.8 430.78,-135.3 430.78,-128.3"/>
</g>
<!-- RmqModule -->
<g id="node2" class="node">
<title>RmqModule</title>
<polygon fill="#8dd3c7" stroke="black" points="464.28,-84.8 461.28,-88.8 440.28,-88.8 437.28,-84.8 377.72,-84.8 377.72,-48.8 464.28,-48.8 464.28,-84.8"/>
<text text-anchor="middle" x="421" y="-62.6" font-family="Times,serif" font-size="14.00">RmqModule</text>
</g>
<!-- RmqModule&#45;&gt;ReviewsServiceModule -->
<g id="edge2" class="edge">
<title>RmqModule&#45;&gt;ReviewsServiceModule</title>
<path fill="none" stroke="black" d="M399.24,-84.91C399.24,-84.91 399.24,-103.79 399.24,-103.79"/>
<polygon fill="black" stroke="black" points="395.74,-103.79 399.24,-113.79 402.74,-103.79 395.74,-103.79"/>
</g>
<!-- ReviewRepository -->
<g id="node4" class="node">
<title>ReviewRepository</title>
<ellipse fill="#fdb462" stroke="black" cx="271" cy="-66.8" rx="82.83" ry="18"/>
<text text-anchor="middle" x="271" y="-62.6" font-family="Times,serif" font-size="14.00">ReviewRepository</text>
</g>
<!-- ReviewRepository&#45;&gt;ReviewsServiceModule -->
<g id="edge3" class="edge">
<title>ReviewRepository&#45;&gt;ReviewsServiceModule</title>
<path fill="none" stroke="black" d="M312.52,-82.53C312.52,-82.53 312.52,-103.45 312.52,-103.45"/>
<polygon fill="black" stroke="black" points="309.02,-103.45 312.52,-113.45 316.02,-103.45 309.02,-103.45"/>
</g>
<!-- ReviewsService -->
<g id="node5" class="node">
<title>ReviewsService</title>
<ellipse fill="#fdb462" stroke="black" cx="97" cy="-66.8" rx="73" ry="18"/>
<text text-anchor="middle" x="97" y="-62.6" font-family="Times,serif" font-size="14.00">ReviewsService</text>
</g>
<!-- ReviewsService&#45;&gt;ReviewsServiceModule -->
<g id="edge4" class="edge">
<title>ReviewsService&#45;&gt;ReviewsServiceModule</title>
<path fill="none" stroke="black" d="M97,-84.91C97,-104.14 97,-131.8 97,-131.8 97,-131.8 260.95,-131.8 260.95,-131.8"/>
<polygon fill="black" stroke="black" points="260.95,-135.3 270.95,-131.8 260.95,-128.3 260.95,-135.3"/>
</g>
</g>
</svg>
