<?xml version="1.0" encoding="UTF-8" standalone="no"?>
<!DOCTYPE svg PUBLIC "-//W3C//DTD SVG 1.1//EN"
 "http://www.w3.org/Graphics/SVG/1.1/DTD/svg11.dtd">
<!-- Generated by graphviz version 5.0.0 (20220707.1540)
 -->
<!-- Title: dependencies Pages: 1 -->
<svg width="582pt" height="174pt"
 viewBox="0.00 0.00 582.00 173.80" xmlns="http://www.w3.org/2000/svg" xmlns:xlink="http://www.w3.org/1999/xlink">
<g id="graph0" class="graph" transform="scale(1 1) rotate(0) translate(4 169.8)">
<title>dependencies</title>
<polygon fill="white" stroke="transparent" points="-4,4 -4,-169.8 578,-169.8 578,4 -4,4"/>
<text text-anchor="middle" x="287" y="-8.2" font-family="sans-serif" font-size="14.00">dependencies</text>
<g id="clust1" class="cluster">
<title>cluster_NotificationServiceModule</title>
<polygon fill="none" stroke="black" stroke-dasharray="1,5" points="8,-32.8 8,-157.8 566,-157.8 566,-32.8 8,-32.8"/>
</g>
<g id="clust6" class="cluster">
<title>cluster_NotificationServiceModule_providers</title>
<polygon fill="none" stroke="black" points="126,-40.8 126,-92.8 558,-92.8 558,-40.8 126,-40.8"/>
</g>
<g id="clust3" class="cluster">
<title>cluster_NotificationServiceModule_imports</title>
<polygon fill="none" stroke="black" points="16,-40.8 16,-92.8 118,-92.8 118,-40.8 16,-40.8"/>
</g>
<!-- RmqModule -->
<g id="node1" class="node">
<title>RmqModule</title>
<polygon fill="#8dd3c7" stroke="black" points="110.28,-84.8 107.28,-88.8 86.28,-88.8 83.28,-84.8 23.72,-84.8 23.72,-48.8 110.28,-48.8 110.28,-84.8"/>
<text text-anchor="middle" x="67" y="-62.6" font-family="Times,serif" font-size="14.00">RmqModule</text>
</g>
<!-- NotificationServiceModule -->
<g id="node2" class="node">
<title>NotificationServiceModule</title>
<polygon fill="#8dd3c7" stroke="black" points="185.68,-149.8 182.68,-153.8 161.68,-153.8 158.68,-149.8 16.32,-149.8 16.32,-113.8 185.68,-113.8 185.68,-149.8"/>
<text text-anchor="middle" x="101" y="-127.6" font-family="Times,serif" font-size="14.00">NotificationServiceModule</text>
</g>
<!-- RmqModule&#45;&gt;NotificationServiceModule -->
<g id="edge1" class="edge">
<title>RmqModule&#45;&gt;NotificationServiceModule</title>
<path fill="none" stroke="black" d="M45.31,-84.91C45.31,-84.91 45.31,-103.79 45.31,-103.79"/>
<polygon fill="black" stroke="black" points="41.81,-103.79 45.31,-113.79 48.81,-103.79 41.81,-103.79"/>
</g>
<!-- RmqModule&#45;&gt;NotificationServiceModule -->
<g id="edge2" class="edge">
<title>RmqModule&#45;&gt;NotificationServiceModule</title>
<path fill="none" stroke="black" d="M67,-84.91C67,-84.91 67,-103.79 67,-103.79"/>
<polygon fill="black" stroke="black" points="63.5,-103.79 67,-113.79 70.5,-103.79 63.5,-103.79"/>
</g>
<!-- RmqModule&#45;&gt;NotificationServiceModule -->
<g id="edge3" class="edge">
<title>RmqModule&#45;&gt;NotificationServiceModule</title>
<path fill="none" stroke="black" d="M88.69,-84.91C88.69,-84.91 88.69,-103.79 88.69,-103.79"/>
<polygon fill="black" stroke="black" points="85.19,-103.79 88.69,-113.79 92.19,-103.79 85.19,-103.79"/>
</g>
<!-- NotificationServiceService -->
<g id="node3" class="node">
<title>NotificationServiceService</title>
<ellipse fill="#fdb462" stroke="black" cx="434" cy="-66.8" rx="115.73" ry="18"/>
<text text-anchor="middle" x="434" y="-62.6" font-family="Times,serif" font-size="14.00">NotificationServiceService</text>
</g>
<!-- NotificationServiceService&#45;&gt;NotificationServiceModule -->
<g id="edge4" class="edge">
<title>NotificationServiceService&#45;&gt;NotificationServiceModule</title>
<path fill="none" stroke="black" d="M434,-84.91C434,-104.14 434,-131.8 434,-131.8 434,-131.8 195.89,-131.8 195.89,-131.8"/>
<polygon fill="black" stroke="black" points="195.89,-128.3 185.89,-131.8 195.89,-135.3 195.89,-128.3"/>
</g>
<!-- TransactionEmails -->
<g id="node4" class="node">
<title>TransactionEmails</title>
<ellipse fill="#fdb462" stroke="black" cx="217" cy="-66.8" rx="83.38" ry="18"/>
<text text-anchor="middle" x="217" y="-62.6" font-family="Times,serif" font-size="14.00">TransactionEmails</text>
</g>
<!-- TransactionEmails&#45;&gt;NotificationServiceModule -->
<g id="edge5" class="edge">
<title>TransactionEmails&#45;&gt;NotificationServiceModule</title>
<path fill="none" stroke="black" d="M159.57,-79.95C159.57,-79.95 159.57,-103.49 159.57,-103.49"/>
<polygon fill="black" stroke="black" points="156.08,-103.49 159.57,-113.49 163.08,-103.49 156.08,-103.49"/>
</g>
</g>
</svg>
