<?xml version="1.0" encoding="UTF-8" standalone="no"?>
<!DOCTYPE svg PUBLIC "-//W3C//DTD SVG 1.1//EN"
 "http://www.w3.org/Graphics/SVG/1.1/DTD/svg11.dtd">
<!-- Generated by graphviz version 2.47.0 (20210316.0004)
 -->
<!-- Title: dependencies Pages: 1 -->
<svg width="1129pt" height="211pt"
 viewBox="0.00 0.00 1129.00 211.00" xmlns="http://www.w3.org/2000/svg" xmlns:xlink="http://www.w3.org/1999/xlink">
<g id="graph0" class="graph" transform="scale(1 1) rotate(0) translate(4 207)">
<title>dependencies</title>
<polygon fill="white" stroke="transparent" points="-4,4 -4,-207 1125,-207 1125,4 -4,4"/>
<text text-anchor="start" x="539.51" y="-42.4" font-family="Times-12" font-weight="bold" font-size="14.00">Legend</text>
<polygon fill="#ffffb3" stroke="transparent" points="326.5,-10 326.5,-30 346.5,-30 346.5,-10 326.5,-10"/>
<text text-anchor="start" x="350.13" y="-15.4" font-family="Times-12" font-size="14.00"> &#160;Declarations</text>
<polygon fill="#8dd3c7" stroke="transparent" points="439.5,-10 439.5,-30 459.5,-30 459.5,-10 439.5,-10"/>
<text text-anchor="start" x="463.23" y="-15.4" font-family="Times-12" font-size="14.00"> &#160;Module</text>
<polygon fill="#80b1d3" stroke="transparent" points="525.5,-10 525.5,-30 545.5,-30 545.5,-10 525.5,-10"/>
<text text-anchor="start" x="549.28" y="-15.4" font-family="Times-12" font-size="14.00"> &#160;Bootstrap</text>
<polygon fill="#fdb462" stroke="transparent" points="622.5,-10 622.5,-30 642.5,-30 642.5,-10 622.5,-10"/>
<text text-anchor="start" x="646.17" y="-15.4" font-family="Times-12" font-size="14.00"> &#160;Providers</text>
<polygon fill="#fb8072" stroke="transparent" points="718.5,-10 718.5,-30 738.5,-30 738.5,-10 718.5,-10"/>
<text text-anchor="start" x="742.23" y="-15.4" font-family="Times-12" font-size="14.00"> &#160;Exports</text>
<g id="clust1" class="cluster">
<title>cluster_NotificationServiceModule</title>
<polygon fill="none" stroke="black" stroke-dasharray="1,5" points="8,-70 8,-195 1113,-195 1113,-70 8,-70"/>
</g>
<g id="clust3" class="cluster">
<title>cluster_NotificationServiceModule_imports</title>
<polygon fill="none" stroke="black" points="874,-78 874,-130 1105,-130 1105,-78 874,-78"/>
</g>
<g id="clust6" class="cluster">
<title>cluster_NotificationServiceModule_providers</title>
<polygon fill="none" stroke="black" points="16,-78 16,-130 866,-130 866,-78 16,-78"/>
</g>
<!-- DatabaseModule -->
<g id="node1" class="node">
<title>DatabaseModule</title>
<polygon fill="#8dd3c7" stroke="black" points="1097.35,-122 1094.35,-126 1073.35,-126 1070.35,-122 986.65,-122 986.65,-86 1097.35,-86 1097.35,-122"/>
<text text-anchor="middle" x="1042" y="-99.8" font-family="Times,serif" font-size="14.00">DatabaseModule</text>
</g>
<!-- NotificationServiceModule -->
<g id="node3" class="node">
<title>NotificationServiceModule</title>
<polygon fill="#8dd3c7" stroke="black" points="1009.68,-187 1006.68,-191 985.68,-191 982.68,-187 840.32,-187 840.32,-151 1009.68,-151 1009.68,-187"/>
<text text-anchor="middle" x="925" y="-164.8" font-family="Times,serif" font-size="14.00">NotificationServiceModule</text>
</g>
<!-- DatabaseModule&#45;&gt;NotificationServiceModule -->
<g id="edge1" class="edge">
<title>DatabaseModule&#45;&gt;NotificationServiceModule</title>
<path fill="none" stroke="black" d="M998.08,-122.11C998.08,-122.11 998.08,-140.99 998.08,-140.99"/>
<polygon fill="black" stroke="black" points="994.58,-140.99 998.08,-150.99 1001.58,-140.99 994.58,-140.99"/>
</g>
<!-- RmqModule -->
<g id="node2" class="node">
<title>RmqModule</title>
<polygon fill="#8dd3c7" stroke="black" points="968.28,-122 965.28,-126 944.28,-126 941.28,-122 881.72,-122 881.72,-86 968.28,-86 968.28,-122"/>
<text text-anchor="middle" x="925" y="-99.8" font-family="Times,serif" font-size="14.00">RmqModule</text>
</g>
<!-- RmqModule&#45;&gt;NotificationServiceModule -->
<g id="edge2" class="edge">
<title>RmqModule&#45;&gt;NotificationServiceModule</title>
<path fill="none" stroke="black" d="M916.32,-122.11C916.32,-122.11 916.32,-140.99 916.32,-140.99"/>
<polygon fill="black" stroke="black" points="912.82,-140.99 916.32,-150.99 919.82,-140.99 912.82,-140.99"/>
</g>
<!-- RmqModule&#45;&gt;NotificationServiceModule -->
<g id="edge3" class="edge">
<title>RmqModule&#45;&gt;NotificationServiceModule</title>
<path fill="none" stroke="black" d="M898.97,-122.11C898.97,-122.11 898.97,-140.99 898.97,-140.99"/>
<polygon fill="black" stroke="black" points="895.47,-140.99 898.97,-150.99 902.47,-140.99 895.47,-140.99"/>
</g>
<!-- RmqModule&#45;&gt;NotificationServiceModule -->
<g id="edge4" class="edge">
<title>RmqModule&#45;&gt;NotificationServiceModule</title>
<path fill="none" stroke="black" d="M951.03,-122.11C951.03,-122.11 951.03,-140.99 951.03,-140.99"/>
<polygon fill="black" stroke="black" points="947.53,-140.99 951.03,-150.99 954.53,-140.99 947.53,-140.99"/>
</g>
<!-- RmqModule&#45;&gt;NotificationServiceModule -->
<g id="edge5" class="edge">
<title>RmqModule&#45;&gt;NotificationServiceModule</title>
<path fill="none" stroke="black" d="M933.68,-122.11C933.68,-122.11 933.68,-140.99 933.68,-140.99"/>
<polygon fill="black" stroke="black" points="930.18,-140.99 933.68,-150.99 937.18,-140.99 930.18,-140.99"/>
</g>
<!-- NotificationServiceService -->
<g id="node4" class="node">
<title>NotificationServiceService</title>
<ellipse fill="#fdb462" stroke="black" cx="742" cy="-104" rx="115.72" ry="18"/>
<text text-anchor="middle" x="742" y="-99.8" font-family="Times,serif" font-size="14.00">NotificationServiceService</text>
</g>
<!-- NotificationServiceService&#45;&gt;NotificationServiceModule -->
<g id="edge6" class="edge">
<title>NotificationServiceService&#45;&gt;NotificationServiceModule</title>
<path fill="none" stroke="black" d="M849.01,-110.96C849.01,-110.96 849.01,-140.81 849.01,-140.81"/>
<polygon fill="black" stroke="black" points="845.51,-140.81 849.01,-150.81 852.51,-140.81 845.51,-140.81"/>
</g>
<!-- SubscriptionRepository -->
<g id="node5" class="node">
<title>SubscriptionRepository</title>
<ellipse fill="#fdb462" stroke="black" cx="506" cy="-104" rx="102.47" ry="18"/>
<text text-anchor="middle" x="506" y="-99.8" font-family="Times,serif" font-size="14.00">SubscriptionRepository</text>
</g>
<!-- SubscriptionRepository&#45;&gt;NotificationServiceModule -->
<g id="edge7" class="edge">
<title>SubscriptionRepository&#45;&gt;NotificationServiceModule</title>
<path fill="none" stroke="black" d="M506,-122.03C506,-138.4 506,-160 506,-160 506,-160 830.21,-160 830.21,-160"/>
<polygon fill="black" stroke="black" points="830.21,-163.5 840.21,-160 830.21,-156.5 830.21,-163.5"/>
</g>
<!-- SubscriptionService -->
<g id="node6" class="node">
<title>SubscriptionService</title>
<ellipse fill="#fdb462" stroke="black" cx="297" cy="-104" rx="88.62" ry="18"/>
<text text-anchor="middle" x="297" y="-99.8" font-family="Times,serif" font-size="14.00">SubscriptionService</text>
</g>
<!-- SubscriptionService&#45;&gt;NotificationServiceModule -->
<g id="edge8" class="edge">
<title>SubscriptionService&#45;&gt;NotificationServiceModule</title>
<path fill="none" stroke="black" d="M297,-122.11C297,-141.34 297,-169 297,-169 297,-169 830.31,-169 830.31,-169"/>
<polygon fill="black" stroke="black" points="830.31,-172.5 840.31,-169 830.31,-165.5 830.31,-172.5"/>
</g>
<!-- TransactionEmails -->
<g id="node7" class="node">
<title>TransactionEmails</title>
<ellipse fill="#fdb462" stroke="black" cx="107" cy="-104" rx="83.38" ry="18"/>
<text text-anchor="middle" x="107" y="-99.8" font-family="Times,serif" font-size="14.00">TransactionEmails</text>
</g>
<!-- TransactionEmails&#45;&gt;NotificationServiceModule -->
<g id="edge9" class="edge">
<title>TransactionEmails&#45;&gt;NotificationServiceModule</title>
<path fill="none" stroke="black" d="M107,-122.29C107,-144.21 107,-178 107,-178 107,-178 830.16,-178 830.16,-178"/>
<polygon fill="black" stroke="black" points="830.16,-181.5 840.16,-178 830.16,-174.5 830.16,-181.5"/>
</g>
</g>
</svg>
