<?xml version="1.0" encoding="UTF-8" standalone="no"?>
<!DOCTYPE svg PUBLIC "-//W3C//DTD SVG 1.1//EN"
 "http://www.w3.org/Graphics/SVG/1.1/DTD/svg11.dtd">
<!-- Generated by graphviz version 5.0.0 (20220707.1540)
 -->
<!-- Title: dependencies Pages: 1 -->
<svg width="665pt" height="174pt"
 viewBox="0.00 0.00 665.00 173.80" xmlns="http://www.w3.org/2000/svg" xmlns:xlink="http://www.w3.org/1999/xlink">
<g id="graph0" class="graph" transform="scale(1 1) rotate(0) translate(4 169.8)">
<title>dependencies</title>
<polygon fill="white" stroke="transparent" points="-4,4 -4,-169.8 661,-169.8 661,4 -4,4"/>
<text text-anchor="middle" x="328.5" y="-8.2" font-family="sans-serif" font-size="14.00">dependencies</text>
<g id="clust1" class="cluster">
<title>cluster_AdminServiceModule</title>
<polygon fill="none" stroke="black" stroke-dasharray="1,5" points="8,-32.8 8,-157.8 649,-157.8 649,-32.8 8,-32.8"/>
</g>
<g id="clust3" class="cluster">
<title>cluster_AdminServiceModule_imports</title>
<polygon fill="none" stroke="black" points="410,-40.8 410,-92.8 641,-92.8 641,-40.8 410,-40.8"/>
</g>
<g id="clust6" class="cluster">
<title>cluster_AdminServiceModule_providers</title>
<polygon fill="none" stroke="black" points="16,-40.8 16,-92.8 402,-92.8 402,-40.8 16,-40.8"/>
</g>
<!-- DatabaseModule -->
<g id="node1" class="node">
<title>DatabaseModule</title>
<polygon fill="#8dd3c7" stroke="black" points="633.36,-84.8 630.36,-88.8 609.36,-88.8 606.36,-84.8 522.64,-84.8 522.64,-48.8 633.36,-48.8 633.36,-84.8"/>
<text text-anchor="middle" x="578" y="-62.6" font-family="Times,serif" font-size="14.00">DatabaseModule</text>
</g>
<!-- AdminServiceModule -->
<g id="node3" class="node">
<title>AdminServiceModule</title>
<polygon fill="#8dd3c7" stroke="black" points="457.42,-149.8 454.42,-153.8 433.42,-153.8 430.42,-149.8 316.58,-149.8 316.58,-113.8 457.42,-113.8 457.42,-149.8"/>
<text text-anchor="middle" x="387" y="-127.6" font-family="Times,serif" font-size="14.00">AdminServiceModule</text>
</g>
<!-- DatabaseModule&#45;&gt;AdminServiceModule -->
<g id="edge1" class="edge">
<title>DatabaseModule&#45;&gt;AdminServiceModule</title>
<path fill="none" stroke="black" d="M578,-84.91C578,-104.14 578,-131.8 578,-131.8 578,-131.8 467.31,-131.8 467.31,-131.8"/>
<polygon fill="black" stroke="black" points="467.31,-128.3 457.31,-131.8 467.31,-135.3 467.31,-128.3"/>
</g>
<!-- RmqModule -->
<g id="node2" class="node">
<title>RmqModule</title>
<polygon fill="#8dd3c7" stroke="black" points="504.28,-84.8 501.28,-88.8 480.28,-88.8 477.28,-84.8 417.72,-84.8 417.72,-48.8 504.28,-48.8 504.28,-84.8"/>
<text text-anchor="middle" x="461" y="-62.6" font-family="Times,serif" font-size="14.00">RmqModule</text>
</g>
<!-- RmqModule&#45;&gt;AdminServiceModule -->
<g id="edge2" class="edge">
<title>RmqModule&#45;&gt;AdminServiceModule</title>
<path fill="none" stroke="black" d="M437.41,-84.91C437.41,-84.91 437.41,-103.79 437.41,-103.79"/>
<polygon fill="black" stroke="black" points="433.91,-103.79 437.41,-113.79 440.91,-103.79 433.91,-103.79"/>
</g>
<!-- AdminRepository -->
<g id="node4" class="node">
<title>AdminRepository</title>
<ellipse fill="#fdb462" stroke="black" cx="314" cy="-66.8" rx="80.49" ry="18"/>
<text text-anchor="middle" x="314" y="-62.6" font-family="Times,serif" font-size="14.00">AdminRepository</text>
</g>
<!-- AdminRepository&#45;&gt;AdminServiceModule -->
<g id="edge3" class="edge">
<title>AdminRepository&#45;&gt;AdminServiceModule</title>
<path fill="none" stroke="black" d="M355.52,-82.2C355.52,-82.2 355.52,-103.74 355.52,-103.74"/>
<polygon fill="black" stroke="black" points="352.02,-103.74 355.52,-113.74 359.02,-103.74 352.02,-103.74"/>
</g>
<!-- AdminServiceService -->
<g id="node5" class="node">
<title>AdminServiceService</title>
<ellipse fill="#fdb462" stroke="black" cx="120" cy="-66.8" rx="95.55" ry="18"/>
<text text-anchor="middle" x="120" y="-62.6" font-family="Times,serif" font-size="14.00">AdminServiceService</text>
</g>
<!-- AdminServiceService&#45;&gt;AdminServiceModule -->
<g id="edge4" class="edge">
<title>AdminServiceService&#45;&gt;AdminServiceModule</title>
<path fill="none" stroke="black" d="M120,-84.91C120,-104.14 120,-131.8 120,-131.8 120,-131.8 306.5,-131.8 306.5,-131.8"/>
<polygon fill="black" stroke="black" points="306.5,-135.3 316.5,-131.8 306.5,-128.3 306.5,-135.3"/>
</g>
</g>
</svg>
