<?xml version="1.0" encoding="UTF-8" standalone="no"?>
<!DOCTYPE svg PUBLIC "-//W3C//DTD SVG 1.1//EN"
 "http://www.w3.org/Graphics/SVG/1.1/DTD/svg11.dtd">
<!-- Generated by graphviz version 2.47.0 (20210316.0004)
 -->
<!-- Title: dependencies Pages: 1 -->
<svg width="1187pt" height="211pt"
 viewBox="0.00 0.00 1187.00 211.00" xmlns="http://www.w3.org/2000/svg" xmlns:xlink="http://www.w3.org/1999/xlink">
<g id="graph0" class="graph" transform="scale(1 1) rotate(0) translate(4 207)">
<title>dependencies</title>
<polygon fill="white" stroke="transparent" points="-4,4 -4,-207 1183,-207 1183,4 -4,4"/>
<text text-anchor="start" x="568.51" y="-42.4" font-family="Times-12" font-weight="bold" font-size="14.00">Legend</text>
<polygon fill="#ffffb3" stroke="transparent" points="355.5,-10 355.5,-30 375.5,-30 375.5,-10 355.5,-10"/>
<text text-anchor="start" x="379.13" y="-15.4" font-family="Times-12" font-size="14.00"> &#160;Declarations</text>
<polygon fill="#8dd3c7" stroke="transparent" points="468.5,-10 468.5,-30 488.5,-30 488.5,-10 468.5,-10"/>
<text text-anchor="start" x="492.23" y="-15.4" font-family="Times-12" font-size="14.00"> &#160;Module</text>
<polygon fill="#80b1d3" stroke="transparent" points="554.5,-10 554.5,-30 574.5,-30 574.5,-10 554.5,-10"/>
<text text-anchor="start" x="578.28" y="-15.4" font-family="Times-12" font-size="14.00"> &#160;Bootstrap</text>
<polygon fill="#fdb462" stroke="transparent" points="651.5,-10 651.5,-30 671.5,-30 671.5,-10 651.5,-10"/>
<text text-anchor="start" x="675.17" y="-15.4" font-family="Times-12" font-size="14.00"> &#160;Providers</text>
<polygon fill="#fb8072" stroke="transparent" points="747.5,-10 747.5,-30 767.5,-30 767.5,-10 747.5,-10"/>
<text text-anchor="start" x="771.23" y="-15.4" font-family="Times-12" font-size="14.00"> &#160;Exports</text>
<g id="clust1" class="cluster">
<title>cluster_AdminServiceModule</title>
<polygon fill="none" stroke="black" stroke-dasharray="1,5" points="8,-70 8,-195 1171,-195 1171,-70 8,-70"/>
</g>
<g id="clust3" class="cluster">
<title>cluster_AdminServiceModule_imports</title>
<polygon fill="none" stroke="black" points="932,-78 932,-130 1163,-130 1163,-78 932,-78"/>
</g>
<g id="clust6" class="cluster">
<title>cluster_AdminServiceModule_providers</title>
<polygon fill="none" stroke="black" points="16,-78 16,-130 924,-130 924,-78 16,-78"/>
</g>
<!-- DatabaseModule -->
<g id="node1" class="node">
<title>DatabaseModule</title>
<polygon fill="#8dd3c7" stroke="black" points="1155.35,-122 1152.35,-126 1131.35,-126 1128.35,-122 1044.65,-122 1044.65,-86 1155.35,-86 1155.35,-122"/>
<text text-anchor="middle" x="1100" y="-99.8" font-family="Times,serif" font-size="14.00">DatabaseModule</text>
</g>
<!-- AdminServiceModule -->
<g id="node3" class="node">
<title>AdminServiceModule</title>
<polygon fill="#8dd3c7" stroke="black" points="727.42,-187 724.42,-191 703.42,-191 700.42,-187 586.58,-187 586.58,-151 727.42,-151 727.42,-187"/>
<text text-anchor="middle" x="657" y="-164.8" font-family="Times,serif" font-size="14.00">AdminServiceModule</text>
</g>
<!-- DatabaseModule&#45;&gt;AdminServiceModule -->
<g id="edge1" class="edge">
<title>DatabaseModule&#45;&gt;AdminServiceModule</title>
<path fill="none" stroke="black" d="M1100,-122.28C1100,-143.32 1100,-175 1100,-175 1100,-175 737.68,-175 737.68,-175"/>
<polygon fill="black" stroke="black" points="737.68,-171.5 727.68,-175 737.68,-178.5 737.68,-171.5"/>
</g>
<!-- RmqModule -->
<g id="node2" class="node">
<title>RmqModule</title>
<polygon fill="#8dd3c7" stroke="black" points="1026.28,-122 1023.28,-126 1002.28,-126 999.28,-122 939.72,-122 939.72,-86 1026.28,-86 1026.28,-122"/>
<text text-anchor="middle" x="983" y="-99.8" font-family="Times,serif" font-size="14.00">RmqModule</text>
</g>
<!-- RmqModule&#45;&gt;AdminServiceModule -->
<g id="edge2" class="edge">
<title>RmqModule&#45;&gt;AdminServiceModule</title>
<path fill="none" stroke="black" d="M983,-122.02C983,-139.37 983,-163 983,-163 983,-163 737.34,-163 737.34,-163"/>
<polygon fill="black" stroke="black" points="737.34,-159.5 727.34,-163 737.34,-166.5 737.34,-159.5"/>
</g>
<!-- AddressBookLabelRepository -->
<g id="node4" class="node">
<title>AddressBookLabelRepository</title>
<ellipse fill="#fdb462" stroke="black" cx="788" cy="-104" rx="127.93" ry="18"/>
<text text-anchor="middle" x="788" y="-99.8" font-family="Times,serif" font-size="14.00">AddressBookLabelRepository</text>
</g>
<!-- AddressBookLabelRepository&#45;&gt;AdminServiceModule -->
<g id="edge3" class="edge">
<title>AddressBookLabelRepository&#45;&gt;AdminServiceModule</title>
<path fill="none" stroke="black" d="M693.62,-116.23C693.62,-116.23 693.62,-140.68 693.62,-140.68"/>
<polygon fill="black" stroke="black" points="690.12,-140.68 693.62,-150.68 697.12,-140.68 690.12,-140.68"/>
</g>
<!-- AddressBookLabelService -->
<g id="node5" class="node">
<title>AddressBookLabelService</title>
<ellipse fill="#fdb462" stroke="black" cx="527" cy="-104" rx="114.59" ry="18"/>
<text text-anchor="middle" x="527" y="-99.8" font-family="Times,serif" font-size="14.00">AddressBookLabelService</text>
</g>
<!-- AddressBookLabelService&#45;&gt;AdminServiceModule -->
<g id="edge4" class="edge">
<title>AddressBookLabelService&#45;&gt;AdminServiceModule</title>
<path fill="none" stroke="black" d="M614.17,-115.92C614.17,-115.92 614.17,-140.77 614.17,-140.77"/>
<polygon fill="black" stroke="black" points="610.67,-140.77 614.17,-150.77 617.67,-140.77 610.67,-140.77"/>
</g>
<!-- AdminRepository -->
<g id="node6" class="node">
<title>AdminRepository</title>
<ellipse fill="#fdb462" stroke="black" cx="314" cy="-104" rx="80.48" ry="18"/>
<text text-anchor="middle" x="314" y="-99.8" font-family="Times,serif" font-size="14.00">AdminRepository</text>
</g>
<!-- AdminRepository&#45;&gt;AdminServiceModule -->
<g id="edge5" class="edge">
<title>AdminRepository&#45;&gt;AdminServiceModule</title>
<path fill="none" stroke="black" d="M314,-122.02C314,-139.37 314,-163 314,-163 314,-163 576.76,-163 576.76,-163"/>
<polygon fill="black" stroke="black" points="576.76,-166.5 586.76,-163 576.76,-159.5 576.76,-166.5"/>
</g>
<!-- AdminServiceService -->
<g id="node7" class="node">
<title>AdminServiceService</title>
<ellipse fill="#fdb462" stroke="black" cx="120" cy="-104" rx="95.54" ry="18"/>
<text text-anchor="middle" x="120" y="-99.8" font-family="Times,serif" font-size="14.00">AdminServiceService</text>
</g>
<!-- AdminServiceService&#45;&gt;AdminServiceModule -->
<g id="edge6" class="edge">
<title>AdminServiceService&#45;&gt;AdminServiceModule</title>
<path fill="none" stroke="black" d="M120,-122.28C120,-143.32 120,-175 120,-175 120,-175 576.52,-175 576.52,-175"/>
<polygon fill="black" stroke="black" points="576.52,-178.5 586.52,-175 576.52,-171.5 576.52,-178.5"/>
</g>
</g>
</svg>
