<?xml version="1.0" encoding="UTF-8" standalone="no"?>
<!DOCTYPE svg PUBLIC "-//W3C//DTD SVG 1.1//EN"
 "http://www.w3.org/Graphics/SVG/1.1/DTD/svg11.dtd">
<!-- Generated by graphviz version 2.47.0 (20210316.0004)
 -->
<!-- Title: dependencies Pages: 1 -->
<svg width="6574pt" height="236pt"
 viewBox="0.00 0.00 6574.00 236.00" xmlns="http://www.w3.org/2000/svg" xmlns:xlink="http://www.w3.org/1999/xlink">
<g id="graph0" class="graph" transform="scale(1 1) rotate(0) translate(4 232)">
<title>dependencies</title>
<polygon fill="white" stroke="transparent" points="-4,4 -4,-232 6570,-232 6570,4 -4,4"/>
<text text-anchor="start" x="3262.01" y="-42.4" font-family="Times-12" font-weight="bold" font-size="14.00">Legend</text>
<polygon fill="#ffffb3" stroke="transparent" points="3049,-10 3049,-30 3069,-30 3069,-10 3049,-10"/>
<text text-anchor="start" x="3072.63" y="-15.4" font-family="Times-12" font-size="14.00"> &#160;Declarations</text>
<polygon fill="#8dd3c7" stroke="transparent" points="3162,-10 3162,-30 3182,-30 3182,-10 3162,-10"/>
<text text-anchor="start" x="3185.73" y="-15.4" font-family="Times-12" font-size="14.00"> &#160;Module</text>
<polygon fill="#80b1d3" stroke="transparent" points="3248,-10 3248,-30 3268,-30 3268,-10 3248,-10"/>
<text text-anchor="start" x="3271.78" y="-15.4" font-family="Times-12" font-size="14.00"> &#160;Bootstrap</text>
<polygon fill="#fdb462" stroke="transparent" points="3345,-10 3345,-30 3365,-30 3365,-10 3345,-10"/>
<text text-anchor="start" x="3368.67" y="-15.4" font-family="Times-12" font-size="14.00"> &#160;Providers</text>
<polygon fill="#fb8072" stroke="transparent" points="3441,-10 3441,-30 3461,-30 3461,-10 3441,-10"/>
<text text-anchor="start" x="3464.73" y="-15.4" font-family="Times-12" font-size="14.00"> &#160;Exports</text>
<g id="clust1" class="cluster">
<title>cluster_AdminServiceModule</title>
<polygon fill="none" stroke="black" stroke-dasharray="1,5" points="1046,-77 1046,-205 2209,-205 2209,-77 1046,-77"/>
</g>
<g id="clust3" class="cluster">
<title>cluster_AdminServiceModule_imports</title>
<polygon fill="none" stroke="black" points="1970,-85 1970,-137 2201,-137 2201,-85 1970,-85"/>
</g>
<g id="clust6" class="cluster">
<title>cluster_AdminServiceModule_providers</title>
<polygon fill="none" stroke="black" points="1054,-85 1054,-137 1962,-137 1962,-85 1054,-85"/>
</g>
<g id="clust19" class="cluster">
<title>cluster_ListingsModule</title>
<polygon fill="none" stroke="black" stroke-dasharray="1,5" points="8,-77 8,-205 1038,-205 1038,-77 8,-77"/>
</g>
<g id="clust24" class="cluster">
<title>cluster_ListingsModule_providers</title>
<polygon fill="none" stroke="black" points="16,-85 16,-137 1030,-137 1030,-85 16,-85"/>
</g>
<g id="clust25" class="cluster">
<title>cluster_LocationModule</title>
<polygon fill="none" stroke="black" stroke-dasharray="1,5" points="6378,-77 6378,-205 6558,-205 6558,-77 6378,-77"/>
</g>
<g id="clust30" class="cluster">
<title>cluster_LocationModule_providers</title>
<polygon fill="none" stroke="black" points="6386,-85 6386,-137 6550,-137 6550,-85 6386,-85"/>
</g>
<g id="clust31" class="cluster">
<title>cluster_NotificationServiceModule</title>
<polygon fill="none" stroke="black" stroke-dasharray="1,5" points="2487,-77 2487,-205 3353,-205 3353,-77 2487,-77"/>
</g>
<g id="clust36" class="cluster">
<title>cluster_NotificationServiceModule_providers</title>
<polygon fill="none" stroke="black" points="2495,-85 2495,-137 3345,-137 3345,-85 2495,-85"/>
</g>
<g id="clust37" class="cluster">
<title>cluster_OrdersServiceModule</title>
<polygon fill="none" stroke="black" stroke-dasharray="1,5" points="3361,-77 3361,-205 3545,-205 3545,-77 3361,-77"/>
</g>
<g id="clust42" class="cluster">
<title>cluster_OrdersServiceModule_providers</title>
<polygon fill="none" stroke="black" points="3369,-85 3369,-137 3537,-137 3537,-85 3369,-85"/>
</g>
<g id="clust43" class="cluster">
<title>cluster_PaymentServiceModule</title>
<polygon fill="none" stroke="black" stroke-dasharray="1,5" points="3553,-77 3553,-205 5097,-205 5097,-77 3553,-77"/>
</g>
<g id="clust48" class="cluster">
<title>cluster_PaymentServiceModule_providers</title>
<polygon fill="none" stroke="black" points="3561,-85 3561,-137 5089,-137 5089,-85 3561,-85"/>
</g>
<g id="clust49" class="cluster">
<title>cluster_ReviewsServiceModule</title>
<polygon fill="none" stroke="black" stroke-dasharray="1,5" points="5105,-77 5105,-205 5303,-205 5303,-77 5105,-77"/>
</g>
<g id="clust54" class="cluster">
<title>cluster_ReviewsServiceModule_providers</title>
<polygon fill="none" stroke="black" points="5113,-85 5113,-137 5295,-137 5295,-85 5113,-85"/>
</g>
<g id="clust55" class="cluster">
<title>cluster_RmqModule</title>
<polygon fill="none" stroke="black" stroke-dasharray="1,5" points="2217,-145 2217,-213 2479,-213 2479,-145 2217,-145"/>
</g>
<g id="clust58" class="cluster">
<title>cluster_RmqModule_exports</title>
<polygon fill="none" stroke="black" points="2367,-153 2367,-205 2471,-205 2471,-153 2367,-153"/>
</g>
<g id="clust60" class="cluster">
<title>cluster_RmqModule_providers</title>
<polygon fill="none" stroke="black" points="2225,-153 2225,-205 2359,-205 2359,-153 2225,-153"/>
</g>
<g id="clust61" class="cluster">
<title>cluster_UsersServiceModule</title>
<polygon fill="none" stroke="black" stroke-dasharray="1,5" points="5311,-77 5311,-205 5921,-205 5921,-77 5311,-77"/>
</g>
<g id="clust66" class="cluster">
<title>cluster_UsersServiceModule_providers</title>
<polygon fill="none" stroke="black" points="5319,-85 5319,-137 5913,-137 5913,-85 5319,-85"/>
</g>
<g id="clust67" class="cluster">
<title>cluster_VendorsModule</title>
<polygon fill="none" stroke="black" stroke-dasharray="1,5" points="5929,-77 5929,-205 6370,-205 6370,-77 5929,-77"/>
</g>
<g id="clust72" class="cluster">
<title>cluster_VendorsModule_providers</title>
<polygon fill="none" stroke="black" points="5937,-85 5937,-137 6362,-137 6362,-85 5937,-85"/>
</g>
<!-- DatabaseModule -->
<g id="node1" class="node">
<title>DatabaseModule</title>
<polygon fill="#8dd3c7" stroke="black" points="2088.35,-129 2085.35,-133 2064.35,-133 2061.35,-129 1977.65,-129 1977.65,-93 2088.35,-93 2088.35,-129"/>
<text text-anchor="middle" x="2033" y="-106.8" font-family="Times,serif" font-size="14.00">DatabaseModule</text>
</g>
<!-- AdminServiceModule -->
<g id="node3" class="node">
<title>AdminServiceModule</title>
<polygon fill="#8dd3c7" stroke="black" points="1847.42,-197 1844.42,-201 1823.42,-201 1820.42,-197 1706.58,-197 1706.58,-161 1847.42,-161 1847.42,-197"/>
<text text-anchor="middle" x="1777" y="-174.8" font-family="Times,serif" font-size="14.00">AdminServiceModule</text>
</g>
<!-- DatabaseModule&#45;&gt;AdminServiceModule -->
<g id="edge1" class="edge">
<title>DatabaseModule&#45;&gt;AdminServiceModule</title>
<path fill="none" stroke="black" d="M2076.11,-129.02C2076.11,-146.37 2076.11,-170 2076.11,-170 2076.11,-170 1857.51,-170 1857.51,-170"/>
<polygon fill="black" stroke="black" points="1857.51,-166.5 1847.51,-170 1857.51,-173.5 1857.51,-166.5"/>
</g>
<!-- ListingsModule -->
<g id="node8" class="node">
<title>ListingsModule</title>
<polygon fill="#8dd3c7" stroke="black" points="1030.16,-197 1027.16,-201 1006.16,-201 1003.16,-197 925.84,-197 925.84,-161 1030.16,-161 1030.16,-197"/>
<text text-anchor="middle" x="978" y="-174.8" font-family="Times,serif" font-size="14.00">ListingsModule</text>
</g>
<!-- DatabaseModule&#45;&gt;ListingsModule -->
<g id="edge7" class="edge">
<title>DatabaseModule&#45;&gt;ListingsModule</title>
<path fill="none" stroke="black" d="M1989.89,-129.15C1989.89,-141.27 1989.89,-155 1989.89,-155 1989.89,-155 1024.29,-155 1024.29,-155 1024.29,-155 1024.29,-155.58 1024.29,-155.58"/>
<polygon fill="black" stroke="black" points="1020.79,-150.81 1024.29,-160.81 1027.79,-150.81 1020.79,-150.81"/>
</g>
<!-- NotificationServiceModule -->
<g id="node15" class="node">
<title>NotificationServiceModule</title>
<polygon fill="#8dd3c7" stroke="black" points="2664.68,-197 2661.68,-201 2640.68,-201 2637.68,-197 2495.32,-197 2495.32,-161 2664.68,-161 2664.68,-197"/>
<text text-anchor="middle" x="2580" y="-174.8" font-family="Times,serif" font-size="14.00">NotificationServiceModule</text>
</g>
<!-- DatabaseModule&#45;&gt;NotificationServiceModule -->
<g id="edge21" class="edge">
<title>DatabaseModule&#45;&gt;NotificationServiceModule</title>
<path fill="none" stroke="black" d="M2002.21,-129.25C2002.21,-143.18 2002.21,-160 2002.21,-160 2002.21,-160 2556.71,-160 2556.71,-160 2556.71,-160 2556.71,-160.08 2556.71,-160.08"/>
<polygon fill="black" stroke="black" points="2553.21,-150.82 2556.71,-160.82 2560.21,-150.82 2553.21,-150.82"/>
</g>
<!-- OrdersServiceModule -->
<g id="node20" class="node">
<title>OrdersServiceModule</title>
<polygon fill="#8dd3c7" stroke="black" points="3508.61,-197 3505.61,-201 3484.61,-201 3481.61,-197 3369.39,-197 3369.39,-161 3508.61,-161 3508.61,-197"/>
<text text-anchor="middle" x="3439" y="-174.8" font-family="Times,serif" font-size="14.00">OrdersServiceModule</text>
</g>
<!-- DatabaseModule&#45;&gt;OrdersServiceModule -->
<g id="edge30" class="edge">
<title>DatabaseModule&#45;&gt;OrdersServiceModule</title>
<path fill="none" stroke="black" d="M2014.53,-129.19C2014.53,-137.28 2014.53,-145 2014.53,-145 2014.53,-145 3399.03,-145 3399.03,-145 3399.03,-145 3399.03,-150.81 3399.03,-150.81"/>
<polygon fill="black" stroke="black" points="3395.53,-150.81 3399.03,-160.81 3402.53,-150.81 3395.53,-150.81"/>
</g>
<!-- PaymentServiceModule -->
<g id="node22" class="node">
<title>PaymentServiceModule</title>
<polygon fill="#8dd3c7" stroke="black" points="3721.02,-197 3718.02,-201 3697.02,-201 3694.02,-197 3570.98,-197 3570.98,-161 3721.02,-161 3721.02,-197"/>
<text text-anchor="middle" x="3646" y="-174.8" font-family="Times,serif" font-size="14.00">PaymentServiceModule</text>
</g>
<!-- DatabaseModule&#45;&gt;PaymentServiceModule -->
<g id="edge38" class="edge">
<title>DatabaseModule&#45;&gt;PaymentServiceModule</title>
<path fill="none" stroke="black" d="M2026.84,-129.16C2026.84,-134.04 2026.84,-138 2026.84,-138 2026.84,-138 3608.37,-138 3608.37,-138 3608.37,-138 3608.37,-150.9 3608.37,-150.9"/>
<polygon fill="black" stroke="black" points="3604.87,-150.9 3608.37,-160.9 3611.87,-150.9 3604.87,-150.9"/>
</g>
<!-- ReviewsServiceModule -->
<g id="node30" class="node">
<title>ReviewsServiceModule</title>
<polygon fill="#8dd3c7" stroke="black" points="5262.74,-197 5259.74,-201 5238.74,-201 5235.74,-197 5113.26,-197 5113.26,-161 5262.74,-161 5262.74,-197"/>
<text text-anchor="middle" x="5188" y="-174.8" font-family="Times,serif" font-size="14.00">ReviewsServiceModule</text>
</g>
<!-- DatabaseModule&#45;&gt;ReviewsServiceModule -->
<g id="edge52" class="edge">
<title>DatabaseModule&#45;&gt;ReviewsServiceModule</title>
<path fill="none" stroke="black" d="M2039.16,-129.19C2039.16,-132.54 2039.16,-135 2039.16,-135 2039.16,-135 5115.12,-135 5115.12,-135 5115.12,-135 5115.12,-150.85 5115.12,-150.85"/>
<polygon fill="black" stroke="black" points="5111.62,-150.85 5115.12,-160.85 5118.62,-150.85 5111.62,-150.85"/>
</g>
<!-- UsersServiceModule -->
<g id="node34" class="node">
<title>UsersServiceModule</title>
<polygon fill="#8dd3c7" stroke="black" points="5469.9,-197 5466.9,-201 5445.9,-201 5442.9,-197 5336.1,-197 5336.1,-161 5469.9,-161 5469.9,-197"/>
<text text-anchor="middle" x="5403" y="-174.8" font-family="Times,serif" font-size="14.00">UsersServiceModule</text>
</g>
<!-- DatabaseModule&#45;&gt;UsersServiceModule -->
<g id="edge58" class="edge">
<title>DatabaseModule&#45;&gt;UsersServiceModule</title>
<path fill="none" stroke="black" d="M2051.47,-129.17C2051.47,-131.45 2051.47,-133 2051.47,-133 2051.47,-133 5380.77,-133 5380.77,-133 5380.77,-133 5380.77,-150.82 5380.77,-150.82"/>
<polygon fill="black" stroke="black" points="5377.27,-150.82 5380.77,-160.82 5384.27,-150.82 5377.27,-150.82"/>
</g>
<!-- VendorsModule -->
<g id="node38" class="node">
<title>VendorsModule</title>
<polygon fill="#8dd3c7" stroke="black" points="6043.48,-197 6040.48,-201 6019.48,-201 6016.48,-197 5936.52,-197 5936.52,-161 6043.48,-161 6043.48,-197"/>
<text text-anchor="middle" x="5990" y="-174.8" font-family="Times,serif" font-size="14.00">VendorsModule</text>
</g>
<!-- DatabaseModule&#45;&gt;VendorsModule -->
<g id="edge64" class="edge">
<title>DatabaseModule&#45;&gt;VendorsModule</title>
<path fill="none" stroke="black" d="M2063.79,-129.15C2063.79,-130.3 2063.79,-131 2063.79,-131 2063.79,-131 5938.51,-131 5938.51,-131 5938.51,-131 5938.51,-150.85 5938.51,-150.85"/>
<polygon fill="black" stroke="black" points="5935.01,-150.85 5938.51,-160.85 5942.01,-150.85 5935.01,-150.85"/>
</g>
<!-- RmqModule -->
<g id="node2" class="node">
<title>RmqModule</title>
<polygon fill="#8dd3c7" stroke="black" points="2193.28,-129 2190.28,-133 2169.28,-133 2166.28,-129 2106.72,-129 2106.72,-93 2193.28,-93 2193.28,-129"/>
<text text-anchor="middle" x="2150" y="-106.8" font-family="Times,serif" font-size="14.00">RmqModule</text>
</g>
<!-- RmqModule&#45;&gt;AdminServiceModule -->
<g id="edge2" class="edge">
<title>RmqModule&#45;&gt;AdminServiceModule</title>
<path fill="none" stroke="black" d="M2126.33,-129.22C2126.33,-149.37 2126.33,-179 2126.33,-179 2126.33,-179 1857.27,-179 1857.27,-179"/>
<polygon fill="black" stroke="black" points="1857.27,-175.5 1847.27,-179 1857.27,-182.5 1857.27,-175.5"/>
</g>
<!-- RmqModule&#45;&gt;ListingsModule -->
<g id="edge8" class="edge">
<title>RmqModule&#45;&gt;ListingsModule</title>
<path fill="none" stroke="black" d="M2110.56,-129.13C2110.56,-139.71 2110.56,-151 2110.56,-151 2110.56,-151 973.97,-151 973.97,-151 973.97,-151 973.97,-151.98 973.97,-151.98"/>
<polygon fill="black" stroke="black" points="970.47,-150.79 973.97,-160.79 977.47,-150.79 970.47,-150.79"/>
</g>
<!-- RmqModule&#45;&gt;ListingsModule -->
<g id="edge9" class="edge">
<title>RmqModule&#45;&gt;ListingsModule</title>
<path fill="none" stroke="black" d="M2122.39,-129.04C2122.39,-142.29 2122.39,-158 2122.39,-158 2122.39,-158 1028.32,-158 1028.32,-158 1028.32,-158 1028.32,-158.29 1028.32,-158.29"/>
<polygon fill="black" stroke="black" points="1024.82,-150.92 1028.32,-160.92 1031.82,-150.92 1024.82,-150.92"/>
</g>
<!-- RmqModule&#45;&gt;ListingsModule -->
<g id="edge10" class="edge">
<title>RmqModule&#45;&gt;ListingsModule</title>
<path fill="none" stroke="black" d="M2114.5,-129.06C2114.5,-140.44 2114.5,-153 2114.5,-153 2114.5,-153 998.12,-153 998.12,-153 998.12,-153 998.12,-153.79 998.12,-153.79"/>
<polygon fill="black" stroke="black" points="994.62,-150.94 998.12,-160.94 1001.62,-150.94 994.62,-150.94"/>
</g>
<!-- RmqModule&#45;&gt;ListingsModule -->
<g id="edge11" class="edge">
<title>RmqModule&#45;&gt;ListingsModule</title>
<path fill="none" stroke="black" d="M2118.44,-129.04C2118.44,-141.56 2118.44,-156 2118.44,-156 2118.44,-156 1026.3,-156 1026.3,-156 1026.3,-156 1026.3,-156.49 1026.3,-156.49"/>
<polygon fill="black" stroke="black" points="1022.8,-150.88 1026.3,-160.88 1029.8,-150.88 1022.8,-150.88"/>
</g>
<!-- LocationModule -->
<g id="node13" class="node">
<title>LocationModule</title>
<polygon fill="#8dd3c7" stroke="black" points="6495.81,-197 6492.81,-201 6471.81,-201 6468.81,-197 6386.19,-197 6386.19,-161 6495.81,-161 6495.81,-197"/>
<text text-anchor="middle" x="6441" y="-174.8" font-family="Times,serif" font-size="14.00">LocationModule</text>
</g>
<!-- RmqModule&#45;&gt;LocationModule -->
<g id="edge16" class="edge">
<title>RmqModule&#45;&gt;LocationModule</title>
<path fill="none" stroke="black" d="M2139.15,-92.87C2139.15,-82.29 2139.15,-71 2139.15,-71 2139.15,-71 6388.18,-71 6388.18,-71 6388.18,-71 6388.18,-150.68 6388.18,-150.68"/>
<polygon fill="black" stroke="black" points="6384.68,-150.68 6388.18,-160.68 6391.68,-150.68 6384.68,-150.68"/>
</g>
<!-- RmqModule&#45;&gt;LocationModule -->
<g id="edge17" class="edge">
<title>RmqModule&#45;&gt;LocationModule</title>
<path fill="none" stroke="black" d="M2130.28,-129.02C2130.28,-161.84 2130.28,-228 2130.28,-228 2130.28,-228 6441,-228 6441,-228 6441,-228 6441,-207.25 6441,-207.25"/>
<polygon fill="black" stroke="black" points="6444.5,-207.25 6441,-197.25 6437.5,-207.25 6444.5,-207.25"/>
</g>
<!-- RmqModule&#45;&gt;LocationModule -->
<g id="edge18" class="edge">
<title>RmqModule&#45;&gt;LocationModule</title>
<path fill="none" stroke="black" d="M2128.31,-92.96C2128.31,-80.44 2128.31,-66 2128.31,-66 2128.31,-66 6390.01,-66 6390.01,-66 6390.01,-66 6390.01,-150.84 6390.01,-150.84"/>
<polygon fill="black" stroke="black" points="6386.51,-150.84 6390.01,-160.84 6393.51,-150.84 6386.51,-150.84"/>
</g>
<!-- RmqModule&#45;&gt;LocationModule -->
<g id="edge19" class="edge">
<title>RmqModule&#45;&gt;LocationModule</title>
<path fill="none" stroke="black" d="M2117.46,-92.75C2117.46,-78.82 2117.46,-62 2117.46,-62 2117.46,-62 6391.85,-62 6391.85,-62 6391.85,-62 6391.85,-150.98 6391.85,-150.98"/>
<polygon fill="black" stroke="black" points="6388.35,-150.98 6391.85,-160.98 6395.35,-150.98 6388.35,-150.98"/>
</g>
<!-- RmqModule&#45;&gt;NotificationServiceModule -->
<g id="edge22" class="edge">
<title>RmqModule&#45;&gt;NotificationServiceModule</title>
<path fill="none" stroke="black" d="M2193.4,-117C2282.84,-117 2479.38,-117 2479.38,-117 2479.38,-117 2479.38,-179 2479.38,-179 2479.38,-179 2485.1,-179 2485.1,-179"/>
<polygon fill="black" stroke="black" points="2485.1,-182.5 2495.1,-179 2485.1,-175.5 2485.1,-182.5"/>
</g>
<!-- RmqModule&#45;&gt;NotificationServiceModule -->
<g id="edge23" class="edge">
<title>RmqModule&#45;&gt;NotificationServiceModule</title>
<path fill="none" stroke="black" d="M2193.38,-99C2287.27,-99 2500.93,-99 2500.93,-99 2500.93,-99 2500.93,-150.85 2500.93,-150.85"/>
<polygon fill="black" stroke="black" points="2497.43,-150.85 2500.93,-160.85 2504.43,-150.85 2497.43,-150.85"/>
</g>
<!-- RmqModule&#45;&gt;NotificationServiceModule -->
<g id="edge24" class="edge">
<title>RmqModule&#45;&gt;NotificationServiceModule</title>
<path fill="none" stroke="black" d="M2193.51,-105C2287.09,-105 2499.09,-105 2499.09,-105 2499.09,-105 2499.09,-150.71 2499.09,-150.71"/>
<polygon fill="black" stroke="black" points="2495.59,-150.71 2499.09,-160.71 2502.59,-150.71 2495.59,-150.71"/>
</g>
<!-- RmqModule&#45;&gt;NotificationServiceModule -->
<g id="edge25" class="edge">
<title>RmqModule&#45;&gt;NotificationServiceModule</title>
<path fill="none" stroke="black" d="M2193.28,-111C2286.36,-111 2497.25,-111 2497.25,-111 2497.25,-111 2497.25,-150.78 2497.25,-150.78"/>
<polygon fill="black" stroke="black" points="2493.75,-150.78 2497.25,-160.78 2500.75,-150.78 2493.75,-150.78"/>
</g>
<!-- RmqModule&#45;&gt;OrdersServiceModule -->
<g id="edge31" class="edge">
<title>RmqModule&#45;&gt;OrdersServiceModule</title>
<path fill="none" stroke="black" d="M2161.83,-129.13C2161.83,-139.31 2161.83,-150 2161.83,-150 2161.83,-150 3371.16,-150 3371.16,-150 3371.16,-150 3371.16,-151.08 3371.16,-151.08"/>
<polygon fill="black" stroke="black" points="3367.66,-150.8 3371.16,-160.8 3374.66,-150.8 3367.66,-150.8"/>
</g>
<!-- RmqModule&#45;&gt;OrdersServiceModule -->
<g id="edge32" class="edge">
<title>RmqModule&#45;&gt;OrdersServiceModule</title>
<path fill="none" stroke="black" d="M2181.56,-129.2C2181.56,-135.03 2181.56,-140 2181.56,-140 2181.56,-140 3464.89,-140 3464.89,-140 3464.89,-140 3464.89,-150.87 3464.89,-150.87"/>
<polygon fill="black" stroke="black" points="3461.39,-150.87 3464.89,-160.87 3468.39,-150.87 3461.39,-150.87"/>
</g>
<!-- RmqModule&#45;&gt;OrdersServiceModule -->
<g id="edge33" class="edge">
<title>RmqModule&#45;&gt;OrdersServiceModule</title>
<path fill="none" stroke="black" d="M2177.61,-129.14C2177.61,-135.46 2177.61,-141 2177.61,-141 2177.61,-141 3442.94,-141 3442.94,-141 3442.94,-141 3442.94,-150.89 3442.94,-150.89"/>
<polygon fill="black" stroke="black" points="3439.44,-150.89 3442.94,-160.89 3446.44,-150.89 3439.44,-150.89"/>
</g>
<!-- RmqModule&#45;&gt;OrdersServiceModule -->
<g id="edge34" class="edge">
<title>RmqModule&#45;&gt;OrdersServiceModule</title>
<path fill="none" stroke="black" d="M2173.67,-129.24C2173.67,-136.43 2173.67,-143 2173.67,-143 2173.67,-143 3420.98,-143 3420.98,-143 3420.98,-143 3420.98,-150.58 3420.98,-150.58"/>
<polygon fill="black" stroke="black" points="3417.48,-150.58 3420.98,-160.58 3424.48,-150.58 3417.48,-150.58"/>
</g>
<!-- RmqModule&#45;&gt;OrdersServiceModule -->
<g id="edge35" class="edge">
<title>RmqModule&#45;&gt;OrdersServiceModule</title>
<path fill="none" stroke="black" d="M2165.78,-129.07C2165.78,-138.46 2165.78,-148 2165.78,-148 2165.78,-148 3373.13,-148 3373.13,-148 3373.13,-148 3373.13,-150.97 3373.13,-150.97"/>
<polygon fill="black" stroke="black" points="3369.63,-150.97 3373.13,-160.97 3376.63,-150.97 3369.63,-150.97"/>
</g>
<!-- RmqModule&#45;&gt;OrdersServiceModule -->
<g id="edge36" class="edge">
<title>RmqModule&#45;&gt;OrdersServiceModule</title>
<path fill="none" stroke="black" d="M2169.72,-129.32C2169.72,-137.79 2169.72,-146 2169.72,-146 2169.72,-146 3375.1,-146 3375.1,-146 3375.1,-146 3375.1,-150.96 3375.1,-150.96"/>
<polygon fill="black" stroke="black" points="3371.6,-150.96 3375.1,-160.96 3378.6,-150.96 3371.6,-150.96"/>
</g>
<!-- RmqModule&#45;&gt;PaymentServiceModule -->
<g id="edge39" class="edge">
<title>RmqModule&#45;&gt;PaymentServiceModule</title>
<path fill="none" stroke="black" d="M2146.06,-129.24C2146.06,-158.57 2146.06,-213 2146.06,-213 2146.06,-213 3671.09,-213 3671.09,-213 3671.09,-213 3671.09,-207.19 3671.09,-207.19"/>
<polygon fill="black" stroke="black" points="3674.59,-207.19 3671.09,-197.19 3667.59,-207.19 3674.59,-207.19"/>
</g>
<!-- RmqModule&#45;&gt;PaymentServiceModule -->
<g id="edge40" class="edge">
<title>RmqModule&#45;&gt;PaymentServiceModule</title>
<path fill="none" stroke="black" d="M2150,-129.43C2150,-157.82 2150,-209 2150,-209 2150,-209 3646,-209 3646,-209 3646,-209 3646,-207.14 3646,-207.14"/>
<polygon fill="black" stroke="black" points="3649.5,-207.14 3646,-197.14 3642.5,-207.14 3649.5,-207.14"/>
</g>
<!-- RmqModule&#45;&gt;PaymentServiceModule -->
<g id="edge41" class="edge">
<title>RmqModule&#45;&gt;PaymentServiceModule</title>
<path fill="none" stroke="black" d="M2142.11,-129.46C2142.11,-159.83 2142.11,-217 2142.11,-217 2142.11,-217 3696.17,-217 3696.17,-217 3696.17,-217 3696.17,-207.11 3696.17,-207.11"/>
<polygon fill="black" stroke="black" points="3699.67,-207.11 3696.17,-197.11 3692.67,-207.11 3699.67,-207.11"/>
</g>
<!-- RmqModule&#45;&gt;PaymentServiceModule -->
<g id="edge42" class="edge">
<title>RmqModule&#45;&gt;PaymentServiceModule</title>
<path fill="none" stroke="black" d="M2157.89,-129.21C2157.89,-155.51 2157.89,-201 2157.89,-201 2157.89,-201 3595.83,-201 3595.83,-201 3595.83,-201 3595.83,-200.62 3595.83,-200.62"/>
<polygon fill="black" stroke="black" points="3599.33,-207.17 3595.83,-197.17 3592.33,-207.17 3599.33,-207.17"/>
</g>
<!-- RmqModule&#45;&gt;PaymentServiceModule -->
<g id="edge43" class="edge">
<title>RmqModule&#45;&gt;PaymentServiceModule</title>
<path fill="none" stroke="black" d="M2185.5,-129.17C2185.5,-133.05 2185.5,-136 2185.5,-136 2185.5,-136 3646,-136 3646,-136 3646,-136 3646,-150.51 3646,-150.51"/>
<polygon fill="black" stroke="black" points="3642.5,-150.51 3646,-160.51 3649.5,-150.51 3642.5,-150.51"/>
</g>
<!-- RmqModule&#45;&gt;PaymentServiceModule -->
<g id="edge44" class="edge">
<title>RmqModule&#45;&gt;PaymentServiceModule</title>
<path fill="none" stroke="black" d="M2153.94,-129.12C2153.94,-156.44 2153.94,-205 2153.94,-205 2153.94,-205 3620.91,-205 3620.91,-205 3620.91,-205 3620.91,-204.21 3620.91,-204.21"/>
<polygon fill="black" stroke="black" points="3624.41,-207.06 3620.91,-197.06 3617.41,-207.06 3624.41,-207.06"/>
</g>
<!-- RmqModule&#45;&gt;ReviewsServiceModule -->
<g id="edge53" class="edge">
<title>RmqModule&#45;&gt;ReviewsServiceModule</title>
<path fill="none" stroke="black" d="M2182.54,-92.83C2182.54,-90.55 2182.54,-89 2182.54,-89 2182.54,-89 5117.11,-89 5117.11,-89 5117.11,-89 5117.11,-150.79 5117.11,-150.79"/>
<polygon fill="black" stroke="black" points="5113.61,-150.79 5117.11,-160.79 5120.61,-150.79 5113.61,-150.79"/>
</g>
<!-- RmqModule&#45;&gt;ReviewsServiceModule -->
<g id="edge54" class="edge">
<title>RmqModule&#45;&gt;ReviewsServiceModule</title>
<path fill="none" stroke="black" d="M2171.69,-92.84C2171.69,-87.96 2171.69,-84 2171.69,-84 2171.69,-84 5119.1,-84 5119.1,-84 5119.1,-84 5119.1,-150.68 5119.1,-150.68"/>
<polygon fill="black" stroke="black" points="5115.6,-150.68 5119.1,-160.68 5122.6,-150.68 5115.6,-150.68"/>
</g>
<!-- RmqService  -->
<g id="node32" class="node">
<title>RmqService </title>
<polygon fill="#fb8072" stroke="black" points="2463.21,-197 2374.79,-197 2374.79,-161 2463.21,-161 2463.21,-197"/>
<text text-anchor="middle" x="2419" y="-174.8" font-family="Times,serif" font-size="14.00">RmqService </text>
</g>
<!-- RmqModule&#45;&gt;RmqService  -->
<g id="edge56" class="edge">
<title>RmqModule&#45;&gt;RmqService </title>
<path fill="none" stroke="black" stroke-dasharray="5,2" d="M2193.52,-123C2269.65,-123 2419,-123 2419,-123 2419,-123 2419,-150.97 2419,-150.97"/>
<polygon fill="black" stroke="black" points="2415.5,-150.97 2419,-160.97 2422.5,-150.97 2415.5,-150.97"/>
</g>
<!-- RmqModule&#45;&gt;UsersServiceModule -->
<g id="edge59" class="edge">
<title>RmqModule&#45;&gt;UsersServiceModule</title>
<path fill="none" stroke="black" d="M2134.22,-129.06C2134.22,-161.21 2134.22,-225 2134.22,-225 2134.22,-225 5425.23,-225 5425.23,-225 5425.23,-225 5425.23,-207.18 5425.23,-207.18"/>
<polygon fill="black" stroke="black" points="5428.73,-207.18 5425.23,-197.18 5421.73,-207.18 5428.73,-207.18"/>
</g>
<!-- RmqModule&#45;&gt;UsersServiceModule -->
<g id="edge60" class="edge">
<title>RmqModule&#45;&gt;UsersServiceModule</title>
<path fill="none" stroke="black" d="M2138.17,-129.49C2138.17,-160.59 2138.17,-220 2138.17,-220 2138.17,-220 5380.77,-220 5380.77,-220 5380.77,-220 5380.77,-207.1 5380.77,-207.1"/>
<polygon fill="black" stroke="black" points="5384.27,-207.1 5380.77,-197.1 5377.27,-207.1 5384.27,-207.1"/>
</g>
<!-- RmqModule&#45;&gt;VendorsModule -->
<g id="edge65" class="edge">
<title>RmqModule&#45;&gt;VendorsModule</title>
<path fill="none" stroke="black" d="M2150,-92.58C2150,-83.72 2150,-75 2150,-75 2150,-75 5942.51,-75 5942.51,-75 5942.51,-75 5942.51,-150.88 5942.51,-150.88"/>
<polygon fill="black" stroke="black" points="5939.01,-150.88 5942.51,-160.88 5946.01,-150.88 5939.01,-150.88"/>
</g>
<!-- RmqModule&#45;&gt;VendorsModule -->
<g id="edge66" class="edge">
<title>RmqModule&#45;&gt;VendorsModule</title>
<path fill="none" stroke="black" d="M2160.85,-92.97C2160.85,-86.15 2160.85,-80 2160.85,-80 2160.85,-80 5940.51,-80 5940.51,-80 5940.51,-80 5940.51,-150.84 5940.51,-150.84"/>
<polygon fill="black" stroke="black" points="5937.01,-150.84 5940.51,-160.84 5944.01,-150.84 5937.01,-150.84"/>
</g>
<!-- AddressBookLabelRepository -->
<g id="node4" class="node">
<title>AddressBookLabelRepository</title>
<ellipse fill="#fdb462" stroke="black" cx="1438" cy="-111" rx="127.93" ry="18"/>
<text text-anchor="middle" x="1438" y="-106.8" font-family="Times,serif" font-size="14.00">AddressBookLabelRepository</text>
</g>
<!-- AddressBookLabelRepository&#45;&gt;AdminServiceModule -->
<g id="edge3" class="edge">
<title>AddressBookLabelRepository&#45;&gt;AdminServiceModule</title>
<path fill="none" stroke="black" d="M1438,-129.27C1438,-147.56 1438,-173 1438,-173 1438,-173 1696.76,-173 1696.76,-173"/>
<polygon fill="black" stroke="black" points="1696.76,-176.5 1706.76,-173 1696.76,-169.5 1696.76,-176.5"/>
</g>
<!-- AddressBookLabelService -->
<g id="node5" class="node">
<title>AddressBookLabelService</title>
<ellipse fill="#fdb462" stroke="black" cx="1177" cy="-111" rx="114.59" ry="18"/>
<text text-anchor="middle" x="1177" y="-106.8" font-family="Times,serif" font-size="14.00">AddressBookLabelService</text>
</g>
<!-- AddressBookLabelService&#45;&gt;AdminServiceModule -->
<g id="edge4" class="edge">
<title>AddressBookLabelService&#45;&gt;AdminServiceModule</title>
<path fill="none" stroke="black" d="M1177,-129.29C1177,-151.21 1177,-185 1177,-185 1177,-185 1696.7,-185 1696.7,-185"/>
<polygon fill="black" stroke="black" points="1696.7,-188.5 1706.7,-185 1696.7,-181.5 1696.7,-188.5"/>
</g>
<!-- AdminRepository -->
<g id="node6" class="node">
<title>AdminRepository</title>
<ellipse fill="#fdb462" stroke="black" cx="1874" cy="-111" rx="80.48" ry="18"/>
<text text-anchor="middle" x="1874" y="-106.8" font-family="Times,serif" font-size="14.00">AdminRepository</text>
</g>
<!-- AdminRepository&#45;&gt;AdminServiceModule -->
<g id="edge5" class="edge">
<title>AdminRepository&#45;&gt;AdminServiceModule</title>
<path fill="none" stroke="black" d="M1820.48,-124.43C1820.48,-124.43 1820.48,-150.96 1820.48,-150.96"/>
<polygon fill="black" stroke="black" points="1816.98,-150.96 1820.48,-160.96 1823.98,-150.96 1816.98,-150.96"/>
</g>
<!-- AdminServiceService -->
<g id="node7" class="node">
<title>AdminServiceService</title>
<ellipse fill="#fdb462" stroke="black" cx="1680" cy="-111" rx="95.54" ry="18"/>
<text text-anchor="middle" x="1680" y="-106.8" font-family="Times,serif" font-size="14.00">AdminServiceService</text>
</g>
<!-- AdminServiceService&#45;&gt;AdminServiceModule -->
<g id="edge6" class="edge">
<title>AdminServiceService&#45;&gt;AdminServiceModule</title>
<path fill="none" stroke="black" d="M1741.28,-125.09C1741.28,-125.09 1741.28,-150.79 1741.28,-150.79"/>
<polygon fill="black" stroke="black" points="1737.78,-150.79 1741.28,-160.79 1744.78,-150.79 1737.78,-150.79"/>
</g>
<!-- ListingCategoryRepository -->
<g id="node9" class="node">
<title>ListingCategoryRepository</title>
<ellipse fill="#fdb462" stroke="black" cx="364" cy="-111" rx="116.35" ry="18"/>
<text text-anchor="middle" x="364" y="-106.8" font-family="Times,serif" font-size="14.00">ListingCategoryRepository</text>
</g>
<!-- ListingCategoryRepository&#45;&gt;ListingsModule -->
<g id="edge12" class="edge">
<title>ListingCategoryRepository&#45;&gt;ListingsModule</title>
<path fill="none" stroke="black" d="M364,-129.22C364,-149.37 364,-179 364,-179 364,-179 915.65,-179 915.65,-179"/>
<polygon fill="black" stroke="black" points="915.65,-182.5 925.65,-179 915.65,-175.5 915.65,-182.5"/>
</g>
<!-- ListingMenuRepository -->
<g id="node10" class="node">
<title>ListingMenuRepository</title>
<ellipse fill="#fdb462" stroke="black" cx="127" cy="-111" rx="103.11" ry="18"/>
<text text-anchor="middle" x="127" y="-106.8" font-family="Times,serif" font-size="14.00">ListingMenuRepository</text>
</g>
<!-- ListingMenuRepository&#45;&gt;ListingsModule -->
<g id="edge13" class="edge">
<title>ListingMenuRepository&#45;&gt;ListingsModule</title>
<path fill="none" stroke="black" d="M127,-129.25C127,-152.02 127,-188 127,-188 127,-188 915.73,-188 915.73,-188"/>
<polygon fill="black" stroke="black" points="915.73,-191.5 925.73,-188 915.73,-184.5 915.73,-191.5"/>
</g>
<!-- ListingOptionGroupRepository -->
<g id="node11" class="node">
<title>ListingOptionGroupRepository</title>
<ellipse fill="#fdb462" stroke="black" cx="890" cy="-111" rx="132.05" ry="18"/>
<text text-anchor="middle" x="890" y="-106.8" font-family="Times,serif" font-size="14.00">ListingOptionGroupRepository</text>
</g>
<!-- ListingOptionGroupRepository&#45;&gt;ListingsModule -->
<g id="edge14" class="edge">
<title>ListingOptionGroupRepository&#45;&gt;ListingsModule</title>
<path fill="none" stroke="black" d="M949.82,-127.12C949.82,-127.12 949.82,-150.6 949.82,-150.6"/>
<polygon fill="black" stroke="black" points="946.32,-150.6 949.82,-160.6 953.32,-150.6 946.32,-150.6"/>
</g>
<!-- ScheduledListingRepository -->
<g id="node12" class="node">
<title>ScheduledListingRepository</title>
<ellipse fill="#fdb462" stroke="black" cx="619" cy="-111" rx="121.01" ry="18"/>
<text text-anchor="middle" x="619" y="-106.8" font-family="Times,serif" font-size="14.00">ScheduledListingRepository</text>
</g>
<!-- ScheduledListingRepository&#45;&gt;ListingsModule -->
<g id="edge15" class="edge">
<title>ScheduledListingRepository&#45;&gt;ListingsModule</title>
<path fill="none" stroke="black" d="M619,-129.02C619,-146.37 619,-170 619,-170 619,-170 915.8,-170 915.8,-170"/>
<polygon fill="black" stroke="black" points="915.8,-173.5 925.8,-170 915.8,-166.5 915.8,-173.5"/>
</g>
<!-- LocationService -->
<g id="node14" class="node">
<title>LocationService</title>
<ellipse fill="#fdb462" stroke="black" cx="6468" cy="-111" rx="74.14" ry="18"/>
<text text-anchor="middle" x="6468" y="-106.8" font-family="Times,serif" font-size="14.00">LocationService</text>
</g>
<!-- LocationService&#45;&gt;LocationModule -->
<g id="edge20" class="edge">
<title>LocationService&#45;&gt;LocationModule</title>
<path fill="none" stroke="black" d="M6444.67,-128.16C6444.67,-128.16 6444.67,-150.65 6444.67,-150.65"/>
<polygon fill="black" stroke="black" points="6441.17,-150.65 6444.67,-160.65 6448.17,-150.65 6441.17,-150.65"/>
</g>
<!-- NotificationServiceService -->
<g id="node16" class="node">
<title>NotificationServiceService</title>
<ellipse fill="#fdb462" stroke="black" cx="2841" cy="-111" rx="115.72" ry="18"/>
<text text-anchor="middle" x="2841" y="-106.8" font-family="Times,serif" font-size="14.00">NotificationServiceService</text>
</g>
<!-- NotificationServiceService&#45;&gt;NotificationServiceModule -->
<g id="edge26" class="edge">
<title>NotificationServiceService&#45;&gt;NotificationServiceModule</title>
<path fill="none" stroke="black" d="M2841,-129.02C2841,-146.37 2841,-170 2841,-170 2841,-170 2674.74,-170 2674.74,-170"/>
<polygon fill="black" stroke="black" points="2674.74,-166.5 2664.74,-170 2674.74,-173.5 2674.74,-166.5"/>
</g>
<!-- SubscriptionRepository -->
<g id="node17" class="node">
<title>SubscriptionRepository</title>
<ellipse fill="#fdb462" stroke="black" cx="2605" cy="-111" rx="102.47" ry="18"/>
<text text-anchor="middle" x="2605" y="-106.8" font-family="Times,serif" font-size="14.00">SubscriptionRepository</text>
</g>
<!-- SubscriptionRepository&#45;&gt;NotificationServiceModule -->
<g id="edge27" class="edge">
<title>SubscriptionRepository&#45;&gt;NotificationServiceModule</title>
<path fill="none" stroke="black" d="M2610.65,-129.22C2610.65,-129.22 2610.65,-150.73 2610.65,-150.73"/>
<polygon fill="black" stroke="black" points="2607.15,-150.73 2610.65,-160.73 2614.15,-150.73 2607.15,-150.73"/>
</g>
<!-- SubscriptionService -->
<g id="node18" class="node">
<title>SubscriptionService</title>
<ellipse fill="#fdb462" stroke="black" cx="3248" cy="-111" rx="88.62" ry="18"/>
<text text-anchor="middle" x="3248" y="-106.8" font-family="Times,serif" font-size="14.00">SubscriptionService</text>
</g>
<!-- SubscriptionService&#45;&gt;NotificationServiceModule -->
<g id="edge28" class="edge">
<title>SubscriptionService&#45;&gt;NotificationServiceModule</title>
<path fill="none" stroke="black" d="M3248,-129.25C3248,-152.02 3248,-188 3248,-188 3248,-188 2674.6,-188 2674.6,-188"/>
<polygon fill="black" stroke="black" points="2674.6,-184.5 2664.6,-188 2674.6,-191.5 2674.6,-184.5"/>
</g>
<!-- TransactionEmails -->
<g id="node19" class="node">
<title>TransactionEmails</title>
<ellipse fill="#fdb462" stroke="black" cx="3058" cy="-111" rx="83.38" ry="18"/>
<text text-anchor="middle" x="3058" y="-106.8" font-family="Times,serif" font-size="14.00">TransactionEmails</text>
</g>
<!-- TransactionEmails&#45;&gt;NotificationServiceModule -->
<g id="edge29" class="edge">
<title>TransactionEmails&#45;&gt;NotificationServiceModule</title>
<path fill="none" stroke="black" d="M3058,-129.22C3058,-149.37 3058,-179 3058,-179 3058,-179 2674.63,-179 2674.63,-179"/>
<polygon fill="black" stroke="black" points="2674.63,-175.5 2664.63,-179 2674.63,-182.5 2674.63,-175.5"/>
</g>
<!-- OrderRepository -->
<g id="node21" class="node">
<title>OrderRepository</title>
<ellipse fill="#fdb462" stroke="black" cx="3453" cy="-111" rx="75.86" ry="18"/>
<text text-anchor="middle" x="3453" y="-106.8" font-family="Times,serif" font-size="14.00">OrderRepository</text>
</g>
<!-- OrderRepository&#45;&gt;OrdersServiceModule -->
<g id="edge37" class="edge">
<title>OrderRepository&#45;&gt;OrdersServiceModule</title>
<path fill="none" stroke="black" d="M3486.85,-127.12C3486.85,-127.12 3486.85,-150.6 3486.85,-150.6"/>
<polygon fill="black" stroke="black" points="3483.35,-150.6 3486.85,-160.6 3490.35,-150.6 3483.35,-150.6"/>
</g>
<!-- DriverWalletRepository -->
<g id="node23" class="node">
<title>DriverWalletRepository</title>
<ellipse fill="#fdb462" stroke="black" cx="4573" cy="-111" rx="104.21" ry="18"/>
<text text-anchor="middle" x="4573" y="-106.8" font-family="Times,serif" font-size="14.00">DriverWalletRepository</text>
</g>
<!-- DriverWalletRepository&#45;&gt;PaymentServiceModule -->
<g id="edge45" class="edge">
<title>DriverWalletRepository&#45;&gt;PaymentServiceModule</title>
<path fill="none" stroke="black" d="M4573,-129.28C4573,-150.32 4573,-182 4573,-182 4573,-182 3731.08,-182 3731.08,-182"/>
<polygon fill="black" stroke="black" points="3731.08,-178.5 3721.08,-182 3731.08,-185.5 3731.08,-178.5"/>
</g>
<!-- DriverWalletService -->
<g id="node24" class="node">
<title>DriverWalletService</title>
<ellipse fill="#fdb462" stroke="black" cx="4360" cy="-111" rx="90.86" ry="18"/>
<text text-anchor="middle" x="4360" y="-106.8" font-family="Times,serif" font-size="14.00">DriverWalletService</text>
</g>
<!-- DriverWalletService&#45;&gt;PaymentServiceModule -->
<g id="edge46" class="edge">
<title>DriverWalletService&#45;&gt;PaymentServiceModule</title>
<path fill="none" stroke="black" d="M4360,-129.03C4360,-148.58 4360,-177 4360,-177 4360,-177 3731.06,-177 3731.06,-177"/>
<polygon fill="black" stroke="black" points="3731.06,-173.5 3721.06,-177 3731.06,-180.5 3731.06,-173.5"/>
</g>
<!-- DriverWalletTransactionRepository -->
<g id="node25" class="node">
<title>DriverWalletTransactionRepository</title>
<ellipse fill="#fdb462" stroke="black" cx="4101" cy="-111" rx="149.87" ry="18"/>
<text text-anchor="middle" x="4101" y="-106.8" font-family="Times,serif" font-size="14.00">DriverWalletTransactionRepository</text>
</g>
<!-- DriverWalletTransactionRepository&#45;&gt;PaymentServiceModule -->
<g id="edge47" class="edge">
<title>DriverWalletTransactionRepository&#45;&gt;PaymentServiceModule</title>
<path fill="none" stroke="black" d="M4101,-129.3C4101,-147.27 4101,-172 4101,-172 4101,-172 3731.13,-172 3731.13,-172"/>
<polygon fill="black" stroke="black" points="3731.13,-168.5 3721.13,-172 3731.13,-175.5 3731.13,-168.5"/>
</g>
<!-- FlutterwaveService -->
<g id="node26" class="node">
<title>FlutterwaveService</title>
<ellipse fill="#fdb462" stroke="black" cx="3847" cy="-111" rx="86.23" ry="18"/>
<text text-anchor="middle" x="3847" y="-106.8" font-family="Times,serif" font-size="14.00">FlutterwaveService</text>
</g>
<!-- FlutterwaveService&#45;&gt;PaymentServiceModule -->
<g id="edge48" class="edge">
<title>FlutterwaveService&#45;&gt;PaymentServiceModule</title>
<path fill="none" stroke="black" d="M3847,-129.03C3847,-145.4 3847,-167 3847,-167 3847,-167 3731.13,-167 3731.13,-167"/>
<polygon fill="black" stroke="black" points="3731.13,-163.5 3721.13,-167 3731.13,-170.5 3731.13,-163.5"/>
</g>
<!-- PaymentRepository -->
<g id="node27" class="node">
<title>PaymentRepository</title>
<ellipse fill="#fdb462" stroke="black" cx="3656" cy="-111" rx="87.42" ry="18"/>
<text text-anchor="middle" x="3656" y="-106.8" font-family="Times,serif" font-size="14.00">PaymentRepository</text>
</g>
<!-- PaymentRepository&#45;&gt;PaymentServiceModule -->
<g id="edge49" class="edge">
<title>PaymentRepository&#45;&gt;PaymentServiceModule</title>
<path fill="none" stroke="black" d="M3683.63,-128.16C3683.63,-128.16 3683.63,-150.65 3683.63,-150.65"/>
<polygon fill="black" stroke="black" points="3680.13,-150.65 3683.63,-160.65 3687.13,-150.65 3680.13,-150.65"/>
</g>
<!-- PaystackService -->
<g id="node28" class="node">
<title>PaystackService</title>
<ellipse fill="#fdb462" stroke="black" cx="5007" cy="-111" rx="74.13" ry="18"/>
<text text-anchor="middle" x="5007" y="-106.8" font-family="Times,serif" font-size="14.00">PaystackService</text>
</g>
<!-- PaystackService&#45;&gt;PaymentServiceModule -->
<g id="edge50" class="edge">
<title>PaystackService&#45;&gt;PaymentServiceModule</title>
<path fill="none" stroke="black" d="M5007,-129.38C5007,-153.28 5007,-192 5007,-192 5007,-192 3731.11,-192 3731.11,-192"/>
<polygon fill="black" stroke="black" points="3731.11,-188.5 3721.11,-192 3731.11,-195.5 3731.11,-188.5"/>
</g>
<!-- VendorPayoutRepository -->
<g id="node29" class="node">
<title>VendorPayoutRepository</title>
<ellipse fill="#fdb462" stroke="black" cx="4805" cy="-111" rx="109.4" ry="18"/>
<text text-anchor="middle" x="4805" y="-106.8" font-family="Times,serif" font-size="14.00">VendorPayoutRepository</text>
</g>
<!-- VendorPayoutRepository&#45;&gt;PaymentServiceModule -->
<g id="edge51" class="edge">
<title>VendorPayoutRepository&#45;&gt;PaymentServiceModule</title>
<path fill="none" stroke="black" d="M4805,-129.01C4805,-151.49 4805,-187 4805,-187 4805,-187 3731.15,-187 3731.15,-187"/>
<polygon fill="black" stroke="black" points="3731.15,-183.5 3721.15,-187 3731.15,-190.5 3731.15,-183.5"/>
</g>
<!-- ReviewRepository -->
<g id="node31" class="node">
<title>ReviewRepository</title>
<ellipse fill="#fdb462" stroke="black" cx="5204" cy="-111" rx="82.82" ry="18"/>
<text text-anchor="middle" x="5204" y="-106.8" font-family="Times,serif" font-size="14.00">ReviewRepository</text>
</g>
<!-- ReviewRepository&#45;&gt;ReviewsServiceModule -->
<g id="edge55" class="edge">
<title>ReviewRepository&#45;&gt;ReviewsServiceModule</title>
<path fill="none" stroke="black" d="M5191.98,-128.87C5191.98,-128.87 5191.98,-150.54 5191.98,-150.54"/>
<polygon fill="black" stroke="black" points="5188.48,-150.54 5191.98,-160.54 5195.48,-150.54 5188.48,-150.54"/>
</g>
<!-- RmqService -->
<g id="node33" class="node">
<title>RmqService</title>
<ellipse fill="#fdb462" stroke="black" cx="2292" cy="-179" rx="58.55" ry="18"/>
<text text-anchor="middle" x="2292" y="-174.8" font-family="Times,serif" font-size="14.00">RmqService</text>
</g>
<!-- RmqService&#45;&gt;RmqModule -->
<g id="edge57" class="edge">
<title>RmqService&#45;&gt;RmqModule</title>
<path fill="none" stroke="black" d="M2241.02,-188C2215.28,-188 2189.44,-188 2189.44,-188 2189.44,-188 2189.44,-139.25 2189.44,-139.25"/>
<polygon fill="black" stroke="black" points="2192.94,-139.25 2189.44,-129.25 2185.94,-139.25 2192.94,-139.25"/>
</g>
<!-- AddressBookRepository -->
<g id="node35" class="node">
<title>AddressBookRepository</title>
<ellipse fill="#fdb462" stroke="black" cx="5637" cy="-111" rx="105.96" ry="18"/>
<text text-anchor="middle" x="5637" y="-106.8" font-family="Times,serif" font-size="14.00">AddressBookRepository</text>
</g>
<!-- AddressBookRepository&#45;&gt;UsersServiceModule -->
<g id="edge61" class="edge">
<title>AddressBookRepository&#45;&gt;UsersServiceModule</title>
<path fill="none" stroke="black" d="M5637,-129.27C5637,-147.56 5637,-173 5637,-173 5637,-173 5479.74,-173 5479.74,-173"/>
<polygon fill="black" stroke="black" points="5479.74,-169.5 5469.74,-173 5479.74,-176.5 5479.74,-169.5"/>
</g>
<!-- AddressBookService -->
<g id="node36" class="node">
<title>AddressBookService</title>
<ellipse fill="#fdb462" stroke="black" cx="5420" cy="-111" rx="92.62" ry="18"/>
<text text-anchor="middle" x="5420" y="-106.8" font-family="Times,serif" font-size="14.00">AddressBookService</text>
</g>
<!-- AddressBookService&#45;&gt;UsersServiceModule -->
<g id="edge62" class="edge">
<title>AddressBookService&#45;&gt;UsersServiceModule</title>
<path fill="none" stroke="black" d="M5425.23,-129.22C5425.23,-129.22 5425.23,-150.73 5425.23,-150.73"/>
<polygon fill="black" stroke="black" points="5421.73,-150.73 5425.23,-160.73 5428.73,-150.73 5421.73,-150.73"/>
</g>
<!-- UserRepository -->
<g id="node37" class="node">
<title>UserRepository</title>
<ellipse fill="#fdb462" stroke="black" cx="5833" cy="-111" rx="71.79" ry="18"/>
<text text-anchor="middle" x="5833" y="-106.8" font-family="Times,serif" font-size="14.00">UserRepository</text>
</g>
<!-- UserRepository&#45;&gt;UsersServiceModule -->
<g id="edge63" class="edge">
<title>UserRepository&#45;&gt;UsersServiceModule</title>
<path fill="none" stroke="black" d="M5833,-129.29C5833,-151.21 5833,-185 5833,-185 5833,-185 5479.72,-185 5479.72,-185"/>
<polygon fill="black" stroke="black" points="5479.72,-181.5 5469.72,-185 5479.72,-188.5 5479.72,-181.5"/>
</g>
<!-- VendorRepository -->
<g id="node39" class="node">
<title>VendorRepository</title>
<ellipse fill="#fdb462" stroke="black" cx="6272" cy="-111" rx="82.25" ry="18"/>
<text text-anchor="middle" x="6272" y="-106.8" font-family="Times,serif" font-size="14.00">VendorRepository</text>
</g>
<!-- VendorRepository&#45;&gt;VendorsModule -->
<g id="edge67" class="edge">
<title>VendorRepository&#45;&gt;VendorsModule</title>
<path fill="none" stroke="black" d="M6272,-129.22C6272,-149.37 6272,-179 6272,-179 6272,-179 6053.71,-179 6053.71,-179"/>
<polygon fill="black" stroke="black" points="6053.71,-175.5 6043.71,-179 6053.71,-182.5 6053.71,-175.5"/>
</g>
<!-- VendorSettingsRepository -->
<g id="node40" class="node">
<title>VendorSettingsRepository</title>
<ellipse fill="#fdb462" stroke="black" cx="6058" cy="-111" rx="113.48" ry="18"/>
<text text-anchor="middle" x="6058" y="-106.8" font-family="Times,serif" font-size="14.00">VendorSettingsRepository</text>
</g>
<!-- VendorSettingsRepository&#45;&gt;VendorsModule -->
<g id="edge68" class="edge">
<title>VendorSettingsRepository&#45;&gt;VendorsModule</title>
<path fill="none" stroke="black" d="M5994,-126.09C5994,-126.09 5994,-150.56 5994,-150.56"/>
<polygon fill="black" stroke="black" points="5990.5,-150.56 5994,-160.56 5997.5,-150.56 5990.5,-150.56"/>
</g>
</g>
</svg>
